<svg xmlns="http://www.w3.org/2000/svg" width="96" height="96" fill="none" viewBox="0 0 96 96"><g clip-path="url(#a)"><g clip-path="url(#b)"><path fill="url(#c)" d="M4 74c0-9.941 8.059-18 18-18s18 8.059 18 18-8.059 18-18 18S4 83.941 4 74"/><path fill="url(#d)" d="M58 92c-9.941 0-18-8.059-18-18V56h26c9.941 0 18 8.059 18 18v12a6 6 0 0 1-6 6z"/><path fill="url(#e)" d="M10 12a6 6 0 0 0-6 6v20c0 9.941 8.059 18 18 18s18 8.059 18 18V30c0-9.941-8.059-18-18-18z"/><path fill="url(#f)" d="M10 12a6 6 0 0 0-6 6v20c0 9.941 8.059 18 18 18s18 8.059 18 18V30c0-9.941-8.059-18-18-18z"/><path fill="url(#g)" d="M96 6a6 6 0 0 0-6-6H72C54.327 0 40 14.327 40 32v42c0-9.941 8.059-18 18-18h6c17.673 0 32-14.327 32-32z"/><path fill="url(#h)" d="M96 6a6 6 0 0 0-6-6H72C54.327 0 40 14.327 40 32v42c0-9.941 8.059-18 18-18h6c17.673 0 32-14.327 32-32z"/></g></g><defs><radialGradient id="c" cx="0" cy="0" r="1" gradientTransform="rotate(55.54 -57.942 49.006)scale(27.8346)" gradientUnits="userSpaceOnUse"><stop stop-color="#3bd5ff"/><stop offset=".282" stop-color="#0fafff"/><stop offset=".724" stop-color="#0664bd"/><stop offset="1" stop-color="#003580"/></radialGradient><radialGradient id="d" cx="0" cy="0" r="1" gradientTransform="rotate(216.384 55.795 29.862)scale(47.2017 50.1229)" gradientUnits="userSpaceOnUse"><stop offset=".101" stop-color="#1ec8b0"/><stop offset=".735" stop-color="#0c74a1"/><stop offset="1" stop-color="#004695"/></radialGradient><radialGradient id="h" cx="0" cy="0" r="1" gradientTransform="matrix(0 -58 55.8958 0 53 50.5)" gradientUnits="userSpaceOnUse"><stop offset=".509" stop-color="#2bdabe" stop-opacity="0"/><stop offset="1" stop-color="#98f0b0"/></radialGradient><linearGradient id="e" x1="4" x2="40.967" y1="35.5" y2="34.401" gradientUnits="userSpaceOnUse"><stop stop-color="#2bdabe"/><stop offset=".518" stop-color="#16bbda"/><stop offset=".75" stop-color="#119fc5"/><stop offset="1" stop-color="#0078d4"/></linearGradient><linearGradient id="f" x1="21" x2="10.5" y1="36" y2="7" gradientUnits="userSpaceOnUse"><stop stop-color="#16bbda" stop-opacity="0"/><stop offset="1" stop-color="#76eb95"/></linearGradient><linearGradient id="g" x1="96" x2="38.5" y1="50.5" y2="50.5" gradientUnits="userSpaceOnUse"><stop stop-color="#73edd8"/><stop offset=".552" stop-color="#2bdabe"/><stop offset=".856" stop-color="#16bbda"/><stop offset="1" stop-color="#119fc5"/></linearGradient><clipPath id="a"><path fill="#fff" d="M0 0h96v96H0z"/></clipPath><clipPath id="b"><path fill="#fff" d="M0 0h96v96H0z"/></clipPath></defs></svg>