<svg xmlns="http://www.w3.org/2000/svg" width="96" height="96" fill="none" viewBox="0 0 96 96"><path fill="url(#a)" d="M64 6c0-3.314 2.714-6.034 5.95-5.318C80.582 3.033 90.29 10.85 94.19 14.318c1.188 1.056 1.81 2.575 1.81 4.165V68c0 8.837-7.163 16-16 16s-16-7.163-16-16z"/><path fill="url(#b)" d="M64 6c0-3.314 2.714-6.034 5.95-5.318C80.582 3.033 90.29 10.85 94.19 14.318c1.188 1.056 1.81 2.575 1.81 4.165V68c0 8.837-7.163 16-16 16s-16-7.163-16-16z"/><path fill="url(#c)" d="M32 28.002c0-8.837 7.163-16 16-16h16v-6.82 62.82c0 8.837 7.163 16 16 16h1-49v7.083z"/><path fill="url(#d)" d="M32 28.002c0-8.837 7.163-16 16-16h16v-6.82 62.82c0 8.837 7.163 16 16 16h1-49v7.083z"/><path fill="url(#e)" d="M32 28.002c0-8.837 7.163-16 16-16h16v-6.82 62.82c0 8.837 7.163 16 16 16h1-49v7.083z"/><path fill="url(#f)" d="M0 44c0-8.837 7.163-16 16-16h16v62c0 3.314-2.715 6.033-5.95 5.312C15.47 92.954 5.74 85.151 1.823 81.685.627 80.627 0 79.103 0 77.507z"/><defs><linearGradient id="a" x1="87" x2="86.335" y1=".5" y2="83.995" gradientUnits="userSpaceOnUse"><stop stop-color="#29852f"/><stop offset=".675" stop-color="#136c6c"/><stop offset="1" stop-color="#093c41"/></linearGradient><linearGradient id="c" x1="51.5" x2="51.5" y1="12" y2="84" gradientUnits="userSpaceOnUse"><stop stop-color="#88e06c"/><stop offset=".248" stop-color="#62be55"/><stop offset=".71" stop-color="#309c61"/><stop offset="1" stop-color="#136c6c"/></linearGradient><linearGradient id="d" x1="46" x2="29" y1="71" y2="76" gradientUnits="userSpaceOnUse"><stop stop-color="#22918b" stop-opacity="0"/><stop offset="1" stop-color="#0e5a5d"/></linearGradient><linearGradient id="e" x1="42.5" x2="38.5" y1="26.5" y2="15" gradientUnits="userSpaceOnUse"><stop stop-color="#88e06c" stop-opacity="0"/><stop offset=".579" stop-color="#8ee686" stop-opacity=".386"/><stop offset="1" stop-color="#98f0b0"/></linearGradient><linearGradient id="f" x1="25" x2="25" y1="28" y2="95" gradientUnits="userSpaceOnUse"><stop stop-color="#c8f5b7"/><stop offset=".22" stop-color="#96eb76"/><stop offset="1" stop-color="#52d17c"/></linearGradient><radialGradient id="b" cx="0" cy="0" r="1" gradientTransform="rotate(167.845 42.392 17.408)scale(33.2453 90.2231)" gradientUnits="userSpaceOnUse"><stop stop-color="#0e5a5d" stop-opacity="0"/><stop offset="1" stop-color="#023352"/></radialGradient></defs></svg>