<svg xmlns="http://www.w3.org/2000/svg" width="96" height="96" fill="none" viewBox="0 0 96 96"><g clip-path="url(#a)"><g clip-path="url(#b)"><path fill="url(#c)" d="M8 8.648C8 1.485 12.793-.307 18.001.041 54.96 2.51 88 13.46 88 27.527v43.336c0-6.727-6.794-12.352-17.32-16.758-1.598-.669-2.676-2.21-2.676-3.941V36.012c0-8.099-3.398-11.494-10-13.382s-10.008.204-10.008 7.643v7.096c0 4.986-3.252 8.268-8.985 9.204-5.733.937-10.6 1.492-18.004 2.162C13.605 49.404 8 44.645 8 36.59z"/><path fill="url(#d)" d="M8 8.648C8 1.485 12.793-.307 18.001.041 54.96 2.51 88 13.46 88 27.527v43.336c0-6.727-6.794-12.352-17.32-16.758-1.598-.669-2.676-2.21-2.676-3.941V36.012c0-8.099-3.398-11.494-10-13.382s-10.008.204-10.008 7.643v7.096c0 4.986-3.252 8.268-8.985 9.204-5.733.937-10.6 1.492-18.004 2.162C13.605 49.404 8 44.645 8 36.59z"/><path fill="url(#e)" d="M8 8.648C8 1.485 12.793-.307 18.001.041 54.96 2.51 88 13.46 88 27.527v43.336c0-6.727-6.794-12.352-17.32-16.758-1.598-.669-2.676-2.21-2.676-3.941V36.012c0-8.099-3.398-11.494-10-13.382s-10.008.204-10.008 7.643v7.096c0 4.986-3.252 8.268-8.985 9.204-5.733.937-10.6 1.492-18.004 2.162C13.605 49.404 8 44.645 8 36.59z"/><path fill="url(#f)" d="M88 27.527c0 11.534-21.173 20.502-48 24.93-6.752 1.114-12 4.272-12 11.32v21.525c0 10.209 6.144 11.553 13.998 10.209C70.195 90.685 88 80.77 88 70.827z"/><path fill="url(#g)" fill-opacity=".5" d="M88 27.527c0 11.534-21.173 20.502-48 24.93-6.752 1.114-12 4.272-12 11.32v21.525c0 10.209 6.144 11.553 13.998 10.209C70.195 90.685 88 80.77 88 70.827z"/><path fill="url(#h)" d="M68 62.357c0 8.383-2.929 11.352-9.996 13.367C51.831 77.484 48 76.807 48 68.077V50.964c7.402-1.547 14.195-3.457 20-5.686z" opacity=".5"/></g></g><defs><linearGradient id="c" x1="18.133" x2="47.183" y1="2.115" y2="60.955" gradientUnits="userSpaceOnUse"><stop stop-color="#367af2"/><stop offset=".287" stop-color="#2764e7"/><stop offset=".66" stop-color="#4a43cb"/><stop offset="1" stop-color="#6d37cd"/></linearGradient><linearGradient id="f" x1="67.474" x2="67.474" y1="92.971" y2="36.947" gradientUnits="userSpaceOnUse"><stop stop-color="#2052cb"/><stop offset=".406" stop-color="#2764e7"/><stop offset="1" stop-color="#bd96ff"/></linearGradient><linearGradient id="g" x1="73.263" x2="88" y1="49.838" y2="49.838" gradientUnits="userSpaceOnUse"><stop stop-color="#367af2" stop-opacity="0"/><stop offset=".489" stop-color="#4ba3f3" stop-opacity=".377"/><stop offset="1" stop-color="#6fe8f5"/></linearGradient><linearGradient id="h" x1="57.679" x2="57.679" y1="45.478" y2="74.14" gradientUnits="userSpaceOnUse"><stop stop-color="#ceb0ff"/><stop offset="1" stop-color="#4894fe"/></linearGradient><radialGradient id="d" cx="0" cy="0" r="1" gradientTransform="matrix(17.6607 52.344 -119.087 40.8452 39.94 1.596)" gradientUnits="userSpaceOnUse"><stop offset=".62" stop-color="#5750e2" stop-opacity="0"/><stop offset="1" stop-color="#4b20a0"/></radialGradient><radialGradient id="e" cx="0" cy="0" r="1" gradientTransform="matrix(0 -53.3687 95.7281 0 30.5 50.687)" gradientUnits="userSpaceOnUse"><stop offset=".55" stop-color="#2764e7" stop-opacity="0"/><stop offset="1" stop-color="#ac80ff"/></radialGradient><clipPath id="a"><path fill="#fff" d="M0 0h96v96H0z"/></clipPath><clipPath id="b"><path fill="#fff" d="M0 0h96v96H0z"/></clipPath></defs></svg>