<svg xmlns="http://www.w3.org/2000/svg" width="96" height="96" fill="none" viewBox="0 0 96 96"><path fill="url(#a)" d="M38.5 35.264a4.366 4.366 0 0 1 6.174-.003l34.044 34.021-19.293 19.293c-9.84 9.84-25.792 9.841-35.634.004L9.133 73.93a6.55 6.55 0 0 1-.004-9.26z"/><path fill="url(#b)" d="M38.5 35.264a4.366 4.366 0 0 1 6.174-.003l34.044 34.021-19.293 19.293c-9.84 9.84-25.792 9.841-35.634.004L9.133 73.93a6.55 6.55 0 0 1-.004-9.26z"/><path fill="url(#c)" d="M38.5 35.264a4.366 4.366 0 0 1 6.174-.003l34.044 34.021-19.293 19.293c-9.84 9.84-25.792 9.841-35.634.004L9.133 73.93a6.55 6.55 0 0 1-.004-9.26z"/><path fill="url(#d)" d="m78.717 26.717 10.479 10.48c5.966 5.966 5.966 15.64 0 21.608L67.257 80.74l.655-.655c5.967-5.967 5.967-15.642 0-21.609L57.434 48.001z"/><path fill="url(#e)" d="m78.717 26.717 10.479 10.48c5.966 5.966 5.966 15.64 0 21.608L67.257 80.74l.655-.655c5.967-5.967 5.967-15.642 0-21.609L57.434 48.001z"/><path fill="url(#f)" d="M23.79 7.429c9.842-9.841 25.798-9.841 35.639 0l31.84 31.84-1.748-1.747c-5.967-5.967-15.641-5.967-21.608 0L46.24 59.194a6.55 6.55 0 0 1-9.26 0L9.132 31.348a6.55 6.55 0 0 1 0-9.261z"/><path fill="url(#g)" d="M23.79 7.429c9.842-9.841 25.798-9.841 35.639 0l31.84 31.84-1.748-1.747c-5.967-5.967-15.641-5.967-21.608 0L46.24 59.194a6.55 6.55 0 0 1-9.26 0L9.132 31.348a6.55 6.55 0 0 1 0-9.261z"/><path fill="url(#h)" d="M36.98 36.805a6.55 6.55 0 0 1 9.26 0l11.195 11.196L46.24 59.195a6.55 6.55 0 0 1-9.26 0L25.784 48.001z"/><defs><linearGradient id="a" x1="41.598" x2="39.693" y1="32.162" y2="98.934" gradientUnits="userSpaceOnUse"><stop stop-color="#8b52f4"/><stop offset="1" stop-color="#3d35b1"/></linearGradient><linearGradient id="c" x1="69.986" x2="49.249" y1="54.002" y2="63.825" gradientUnits="userSpaceOnUse"><stop stop-color="#3d35b1"/><stop offset="1" stop-color="#3d35b1" stop-opacity="0"/></linearGradient><linearGradient id="d" x1="79.263" x2="80.354" y1="33.811" y2="68.736" gradientUnits="userSpaceOnUse"><stop stop-color="#7a41dc"/><stop offset="1" stop-color="#ac80ff"/></linearGradient><linearGradient id="f" x1="42.701" x2="44.338" y1="-8.207" y2="60.551" gradientUnits="userSpaceOnUse"><stop stop-color="#ebc7fa"/><stop offset="1" stop-color="#bd96ff"/></linearGradient><linearGradient id="g" x1="44.884" x2="59.072" y1="20.169" y2="5.981" gradientUnits="userSpaceOnUse"><stop stop-color="#ceb0ff" stop-opacity="0"/><stop offset="1" stop-color="#fecbe6"/></linearGradient><linearGradient id="h" x1="46" x2="46" y1="59.5" y2="26.5" gradientUnits="userSpaceOnUse"><stop stop-color="#9c6cfe"/><stop offset="1" stop-color="#bd96ff"/></linearGradient><radialGradient id="b" cx="0" cy="0" r="1" gradientTransform="matrix(0 21.2822 -21.284 0 41.064 47.454)" gradientUnits="userSpaceOnUse"><stop offset=".4" stop-color="#3d35b1"/><stop offset="1" stop-color="#3d35b1" stop-opacity="0"/></radialGradient><radialGradient id="e" cx="0" cy="0" r="1" gradientTransform="rotate(-79.089 85.338 -9.152)scale(46.1268 30.0978)" gradientUnits="userSpaceOnUse"><stop offset=".647" stop-color="#8b52f4" stop-opacity="0"/><stop offset="1" stop-color="#6d37cd"/></radialGradient></defs></svg>