<svg xmlns="http://www.w3.org/2000/svg" width="96" height="96" fill="none" viewBox="0 0 96 96"><path fill="url(#a)" d="M45.772 40.891 8 56v8c0 10 5 18 20 24l17.029 6.812a8 8 0 0 0 5.942 0L68 88c15-6 20-14 20-24V41.23c0 7.074-7.145 11.912-13.714 9.284l-24.058-9.623a6 6 0 0 0-4.456 0"/><path fill="url(#b)" d="M45.772 40.891 8 56v8c0 10 5 18 20 24l17.029 6.812a8 8 0 0 0 5.942 0L68 88c15-6 20-14 20-24V41.23c0 7.074-7.145 11.912-13.714 9.284l-24.058-9.623a6 6 0 0 0-4.456 0"/><path fill="url(#c)" d="M45.772 20.891 8 36v26.77a10 10 0 0 1 6.286-9.284L45.03 41.188a8 8 0 0 1 5.942 0l30.743 12.298A10 10 0 0 1 88 62.77v-20a10 10 0 0 0-6.286-9.284L50.228 20.89a6 6 0 0 0-4.456 0"/><path fill="url(#d)" d="M45.772 20.891 8 36v26.77a10 10 0 0 1 6.286-9.284L45.03 41.188a8 8 0 0 1 5.942 0l30.743 12.298A10 10 0 0 1 88 62.77v-20a10 10 0 0 0-6.286-9.284L50.228 20.89a6 6 0 0 0-4.456 0"/><path fill="url(#e)" d="M45.029 1.188 14.286 13.486A10 10 0 0 0 8 22.77v20a10 10 0 0 1 6.286-9.284L45.03 21.188a8 8 0 0 1 5.942 0l30.743 12.298A10 10 0 0 1 88 42.77v-20a10 10 0 0 0-6.286-9.284L50.97 1.188a8 8 0 0 0-5.942 0"/><defs><linearGradient id="a" x1="53" x2="32.5" y1="97.5" y2="46.5" gradientUnits="userSpaceOnUse"><stop stop-color="#fab500"/><stop offset=".631" stop-color="#ca6407"/><stop offset="1" stop-color="#ae5606"/></linearGradient><linearGradient id="c" x1="87" x2="11.783" y1="38.5" y2="56.277" gradientUnits="userSpaceOnUse"><stop stop-color="#ffcd0f"/><stop offset=".702" stop-color="#e7a400"/><stop offset="1" stop-color="#e67505"/></linearGradient><linearGradient id="e" x1="86.5" x2="8.5" y1="19.5" y2="35" gradientUnits="userSpaceOnUse"><stop stop-color="#ffe994"/><stop offset=".708" stop-color="#ffcd0f"/><stop offset=".893" stop-color="#ffb357"/><stop offset="1" stop-color="#ffa43d"/></linearGradient><radialGradient id="b" cx="0" cy="0" r="1" gradientTransform="matrix(-5.5 -53.50003 72.14437 -7.41671 62.5 96)" gradientUnits="userSpaceOnUse"><stop offset=".605" stop-color="#ca6407" stop-opacity="0"/><stop offset="1" stop-color="#8e250b"/></radialGradient><radialGradient id="d" cx="0" cy="0" r="1" gradientTransform="matrix(38.5 -14.49997 3.85796 10.24358 14.5 33)" gradientUnits="userSpaceOnUse"><stop stop-color="#ca6407"/><stop offset="1" stop-color="#ff921f" stop-opacity="0"/></radialGradient></defs></svg>