<svg xmlns="http://www.w3.org/2000/svg" width="96" height="96" fill="none" viewBox="0 0 96 96"><g clip-path="url(#a)"><g clip-path="url(#b)"><path fill="url(#c)" d="m86.816 74.556-36.96-64-24.833.001L1.798 50.464a6.16 6.16 0 0 0-.007 6.185l16.254 28.08A22.59 22.59 0 0 0 37.593 96h23.74A22.59 22.59 0 0 0 80.84 84.796z"/><path fill="url(#d)" d="m86.816 74.556-36.96-64-24.833.001L1.798 50.464a6.16 6.16 0 0 0-.007 6.185l16.254 28.08A22.59 22.59 0 0 0 37.593 96h23.74A22.59 22.59 0 0 0 80.84 84.796z"/><path fill="url(#e)" d="m86.816 74.556-36.96-64-24.833.001L1.798 50.464a6.16 6.16 0 0 0-.007 6.185l16.254 28.08A22.59 22.59 0 0 0 37.593 96h23.74A22.59 22.59 0 0 0 80.84 84.796z"/><path fill="url(#f)" d="M92.723 64.458a22.59 22.59 0 0 0 .016-22.7L76.097 13.077a6.16 6.16 0 0 0-5.328-3.068l-21.285-.001 30.784 53.226a22.59 22.59 0 0 1-.012 22.637l-.392.676z"/><path fill="url(#g)" d="M92.723 64.458a22.59 22.59 0 0 0 .016-22.7L76.097 13.077a6.16 6.16 0 0 0-5.328-3.068l-21.285-.001 30.784 53.226a22.59 22.59 0 0 1-.012 22.637l-.392.676z"/><path fill="url(#h)" d="M58.111 74.068a6.16 6.16 0 0 0 5.322-3.058l8.926-15.313a6.16 6.16 0 0 0 .009-6.19L45.474 3.077A6.16 6.16 0 0 0 40.145.005L22.402 0a6.16 6.16 0 0 0-5.322 3.055L8.156 18.352a6.16 6.16 0 0 0-.01 6.19l26.893 46.453a6.16 6.16 0 0 0 5.331 3.073z"/><path fill="url(#i)" d="M58.174 74.044a6 6 0 0 0 5.183-2.979l9.02-15.474a6 6 0 0 0 .01-6.028L45.426 3a6 6 0 0 0-5.19-2.994L22.329 0c-1.54 0-2.502 1.667-1.732 3l27.54 47.674a4 4 0 0 1-.013 4.023l-9.57 16.334c-.782 1.334.18 3.011 1.725 3.011z"/></g></g><defs><linearGradient id="c" x1="-5.538" x2="78.447" y1="38.578" y2="50.458" gradientUnits="userSpaceOnUse"><stop stop-color="#0fafff"/><stop offset=".68" stop-color="#2253ce"/><stop offset="1" stop-color="#00479e"/></linearGradient><linearGradient id="f" x1="91.362" x2="28.629" y1="66.006" y2="32.279" gradientUnits="userSpaceOnUse"><stop stop-color="#0094f0"/><stop offset=".28" stop-color="#0fafff"/><stop offset="1" stop-color="#26cfe8"/></linearGradient><linearGradient id="h" x1="57.488" x2="11.906" y1="80.225" y2="6.385" gradientUnits="userSpaceOnUse"><stop stop-color="#0fafff"/><stop offset=".574" stop-color="#29c3ff"/><stop offset="1" stop-color="#73edd8"/></linearGradient><linearGradient id="i" x1="60.542" x2="10.261" y1="80.198" y2="12.604" gradientUnits="userSpaceOnUse"><stop stop-color="#29c3ff"/><stop offset=".574" stop-color="#3bd5ff"/><stop offset="1" stop-color="#9ff2e4"/></linearGradient><radialGradient id="d" cx="0" cy="0" r="1" gradientTransform="matrix(9.50536 14.3696 -20.8666 13.7955 53.77 61.857)" gradientUnits="userSpaceOnUse"><stop offset=".324" stop-color="#102784"/><stop offset="1" stop-color="#1b44b1" stop-opacity="0"/></radialGradient><radialGradient id="e" cx="0" cy="0" r="1" gradientTransform="matrix(18.9936 44.1352 -11.2402 4.83459 20.403 29.525)" gradientUnits="userSpaceOnUse"><stop stop-color="#102784"/><stop offset="1" stop-color="#2052cb" stop-opacity="0"/></radialGradient><radialGradient id="g" cx="0" cy="0" r="1" gradientTransform="matrix(36.4472 47.2145 11.0122 -8.49623 43.504 16.182)" gradientUnits="userSpaceOnUse"><stop stop-color="#2764e7"/><stop offset="1" stop-color="#0094f0" stop-opacity="0"/></radialGradient><clipPath id="a"><path fill="#fff" d="M0 0h96v96H0z"/></clipPath><clipPath id="b"><path fill="#fff" d="M0 0h96v96H0z"/></clipPath></defs></svg>