<svg xmlns="http://www.w3.org/2000/svg" width="96" height="96" fill="none" viewBox="0 0 96 96"><g clip-path="url(#a)"><mask id="c" width="84" height="96" x="6" y="0" mask-type="alpha" maskUnits="userSpaceOnUse"><path fill="url(#b)" d="M26.999 81.678a4 4 0 0 0 2.016 3.473l17 9.715a4 4 0 0 0 3.97 0l38-21.714A4 4 0 0 0 90 69.679V26.32a4 4 0 0 0-2.015-3.473l-38-21.714a4 4 0 0 0-3.97 0l-38 21.714A4 4 0 0 0 6 26.321V45.68a4 4 0 0 0 2.015 3.473L27 60z"/></mask><g mask="url(#c)"><path fill="url(#d)" d="M48 96 6 72V24L48 0l42 24v48z"/><path fill="url(#e)" d="M48 72 27 60V36l21-12 21 12v24z"/><path fill="url(#f)" d="M48 48 27 36l21-12 21 12z" opacity=".5"/><g filter="url(#g)" opacity=".2"><path fill="#000" d="m47.999 98-42-24V26l42 24z"/></g><g filter="url(#h)" opacity=".18"><path fill="#000" d="m47.999 96.38-42-24v-48l42 24z"/></g><path fill="url(#i)" d="m47.999 96-42-24V24l42 24z"/></g></g><defs><linearGradient id="b" x1="90" x2="-10.59" y1="96" y2="73.204" gradientUnits="userSpaceOnUse"><stop stop-color="#fac240"/><stop offset="1" stop-color="#f29800"/></linearGradient><linearGradient id="d" x1="6" x2="106.59" y1="0" y2="22.796" gradientUnits="userSpaceOnUse"><stop stop-color="#fac240"/><stop offset="1" stop-color="#f29800"/></linearGradient><linearGradient id="e" x1="27" x2="77.295" y1="24" y2="35.398" gradientUnits="userSpaceOnUse"><stop stop-color="#ea8200"/><stop offset="1" stop-color="#c46a08"/></linearGradient><linearGradient id="f" x1="27" x2="70.866" y1="24" y2="43.883" gradientUnits="userSpaceOnUse"><stop stop-color="#f5b240"/><stop offset="1" stop-color="#ea8200"/></linearGradient><linearGradient id="i" x1="5.999" x2="68.561" y1="24" y2="63.1" gradientUnits="userSpaceOnUse"><stop stop-color="#ffed80"/><stop offset="1" stop-color="#ffdb00"/></linearGradient><filter id="g" width="58" height="88" x="-2.001" y="18" color-interpolation-filters="sRGB" filterUnits="userSpaceOnUse"><feFlood flood-opacity="0" result="BackgroundImageFix"/><feBlend in="SourceGraphic" in2="BackgroundImageFix" result="shape"/><feGaussianBlur result="effect1_foregroundBlur" stdDeviation="4"/></filter><filter id="h" width="43.52" height="73.52" x="5.239" y="23.62" color-interpolation-filters="sRGB" filterUnits="userSpaceOnUse"><feFlood flood-opacity="0" result="BackgroundImageFix"/><feBlend in="SourceGraphic" in2="BackgroundImageFix" result="shape"/><feGaussianBlur result="effect1_foregroundBlur" stdDeviation=".38"/></filter><clipPath id="a"><path fill="#fff" d="M0 0h96v96H0z"/></clipPath></defs></svg>