<svg xmlns="http://www.w3.org/2000/svg" width="96" height="96" fill="none" viewBox="0 0 96 96"><g clip-path="url(#a)"><g clip-path="url(#b)"><path fill="url(#c)" d="M0 64h32v32H16C7.163 96 0 88.837 0 80z"/><path fill="url(#d)" d="M64 0h16c8.837 0 16 7.163 16 16v16H64z"/><path fill="url(#e)" d="M40 96c13.255 0 24-10.745 24-24V16c0-8.837 7.163-16 16-16H56C42.745 0 32 10.745 32 24v56c0 8.837-7.163 16-16 16z"/><path fill="url(#f)" d="M40 96c13.255 0 24-10.745 24-24V16c0-8.837 7.163-16 16-16H56C42.745 0 32 10.745 32 24v56c0 8.837-7.163 16-16 16z"/><path fill="url(#g)" d="M0 56c0-13.255 10.745-24 24-24h56c8.837 0 16-7.163 16-16v24c0 13.255-10.745 24-24 24H16C7.163 64 0 71.163 0 80z"/></g></g><defs><linearGradient id="e" x1="42" x2="42" y1="96" y2="-2.5" gradientUnits="userSpaceOnUse"><stop stop-color="#9f1459"/><stop offset=".181" stop-color="#ca2134"/><stop offset=".828" stop-color="#fb5937"/><stop offset="1" stop-color="#ff9c70"/></linearGradient><linearGradient id="f" x1="48" x2="48" y1="73.5" y2="22" gradientUnits="userSpaceOnUse"><stop stop-color="#ca2134" stop-opacity="0"/><stop offset=".206" stop-color="#aa1d2d"/><stop offset=".752" stop-color="#aa1d2d"/><stop offset="1" stop-color="#fb5937" stop-opacity="0"/></linearGradient><linearGradient id="g" x1="96" x2="0" y1="37.5" y2="37.5" gradientUnits="userSpaceOnUse"><stop stop-color="#ffb180"/><stop offset=".174" stop-color="#ff9c70"/><stop offset=".795" stop-color="#ff6f47"/><stop offset="1" stop-color="#f83f54"/></linearGradient><radialGradient id="c" cx="0" cy="0" r="1" gradientTransform="rotate(-45 111.286 36.904)scale(36.0624 28.4193)" gradientUnits="userSpaceOnUse"><stop stop-color="#aa1d2d"/><stop offset="1" stop-color="#670938"/></radialGradient><radialGradient id="d" cx="0" cy="0" r="1" gradientTransform="rotate(137.203 44.52 20.33)scale(36.7967 25.5133)" gradientUnits="userSpaceOnUse"><stop stop-color="#ca2134"/><stop offset="1" stop-color="#830b48"/></radialGradient><clipPath id="a"><path fill="#fff" d="M0 0h96v96H0z"/></clipPath><clipPath id="b"><path fill="#fff" d="M0 0h96v96H0z"/></clipPath></defs></svg>