<svg xmlns="http://www.w3.org/2000/svg" width="96" height="96" fill="none" viewBox="0 0 96 96"><g clip-path="url(#a)"><mask id="b" width="84" height="95" x="6" y="0" mask-type="alpha" maskUnits="userSpaceOnUse"><path fill="#75757a" d="m7.984 23.501 37.98-22.305a4.02 4.02 0 0 1 4.072 0L88.016 23.5A4.02 4.02 0 0 1 90 26.968V67.98C90 70.2 88.2 72 85.98 72H48v20.603c0 1.503-1.633 2.438-2.93 1.677L7.985 72.499A4.02 4.02 0 0 1 6 69.032V26.968A4.02 4.02 0 0 1 7.984 23.5"/></mask><g mask="url(#b)"><path fill="url(#c)" d="M91.2 24 48 0v48l43.2 24z"/><path fill="url(#d)" d="M91.2 72 48 48v24z"/><g filter="url(#e)"><path fill="url(#f)" d="M48 48 4.8 24v48L48 96z"/></g><path fill="url(#g)" d="M48 0 4.8 24 48 48z"/></g></g><defs><linearGradient id="c" x1="48" x2="111.318" y1="0" y2="40.704" gradientUnits="userSpaceOnUse"><stop stop-color="#8661c5"/><stop offset="1" stop-color="#5c428b"/></linearGradient><linearGradient id="d" x1="60.842" x2="60.842" y1="47.887" y2="72.113" gradientUnits="userSpaceOnUse"><stop stop-color="#f8ecff"/><stop offset="1" stop-color="#f1d9ff"/></linearGradient><linearGradient id="f" x1="1.508" x2="46.041" y1="24.114" y2="97.194" gradientUnits="userSpaceOnUse"><stop stop-color="#cd9ef0"/><stop offset="1" stop-color="#9f75d3"/></linearGradient><linearGradient id="g" x1="5.211" x2="46.864" y1="8.8" y2="49.172" gradientUnits="userSpaceOnUse"><stop stop-color="#f1d9ff"/><stop offset="1" stop-color="#e4b4ff"/></linearGradient><clipPath id="a"><path fill="#fff" d="M0 0h96v96H0z"/></clipPath><filter id="e" width="53.875" height="82.675" x=".13" y="19.997" color-interpolation-filters="sRGB" filterUnits="userSpaceOnUse"><feFlood flood-opacity="0" result="BackgroundImageFix"/><feColorMatrix in="SourceAlpha" values="0 0 0 0 0 0 0 0 0 0 0 0 0 0 0 0 0 0 127 0"/><feOffset dx=".667" dy="1.334"/><feGaussianBlur stdDeviation="2.669"/><feColorMatrix values="0 0 0 0 0 0 0 0 0 0 0 0 0 0 0 0 0 0 0.2 0"/><feBlend in2="BackgroundImageFix" result="effect1_dropShadow"/><feBlend in="SourceGraphic" in2="effect1_dropShadow" result="shape"/></filter></defs></svg>