<svg xmlns="http://www.w3.org/2000/svg" width="96" height="96" fill="none" viewBox="0 0 96 96"><g clip-path="url(#a)"><g clip-path="url(#b)"><path fill="url(#c)" d="m34.757 64.757 27.026 27.025C67.767 97.768 78 93.53 78 85.066V51a6 6 0 0 0-6-6H39a6 6 0 0 0-6 6v9.515a6 6 0 0 0 1.757 4.242"/><path fill="url(#d)" d="M4.218 16.218C-1.767 10.233 2.47 0 10.935 0H86c5.523 0 10 4.477 10 10v75.065c0 8.464-10.233 12.702-16.218 6.718z"/><path fill="url(#e)" d="M4.218 16.218C-1.767 10.233 2.47 0 10.935 0H86c5.523 0 10 4.477 10 10v75.065c0 8.464-10.233 12.702-16.218 6.718z"/><path fill="url(#f)" d="M4.218 16.218C-1.767 10.233 2.47 0 10.935 0H86c5.523 0 10 4.477 10 10v75.065c0 8.464-10.233 12.702-16.218 6.718z"/><path fill="url(#g)" d="M3.657 15.657A8 8 0 0 0 9.314 18H70a8 8 0 0 1 8 8v60.686a8 8 0 0 0 2.343 5.657L84 96 0 12z"/><path fill="url(#h)" d="M3.657 15.657A8 8 0 0 0 9.314 18H70a8 8 0 0 1 8 8v60.686a8 8 0 0 0 2.343 5.657L84 96 0 12z"/><path fill="url(#i)" d="M3.657 15.657A8 8 0 0 0 9.314 18H70a8 8 0 0 1 8 8v60.686a8 8 0 0 0 2.343 5.657L84 96 0 12z"/><path fill="url(#j)" d="M16.243 46.243C12.463 42.463 15.14 36 20.485 36H54a6 6 0 0 1 6 6v44.686a8 8 0 0 0 2.343 5.657L66 96z"/></g></g><defs><radialGradient id="e" cx="0" cy="0" r="1" gradientTransform="matrix(0 -60.5 14.891 0 74.5 68.5)" gradientUnits="userSpaceOnUse"><stop stop-color="#830b48"/><stop offset="1" stop-color="#ca2134" stop-opacity="0"/></radialGradient><radialGradient id="f" cx="0" cy="0" r="1" gradientTransform="matrix(77.5 0 0 17.7969 16 20.5)" gradientUnits="userSpaceOnUse"><stop stop-color="#830b48"/><stop offset="1" stop-color="#ca2134" stop-opacity="0"/></radialGradient><radialGradient id="h" cx="0" cy="0" r="1" gradientTransform="matrix(0 -43 10.3219 0 57 76.5)" gradientUnits="userSpaceOnUse"><stop stop-color="#ca2134"/><stop offset="1" stop-color="#e82c41" stop-opacity="0"/></radialGradient><radialGradient id="i" cx="0" cy="0" r="1" gradientTransform="matrix(39.5 0 0 9.48173 23 39)" gradientUnits="userSpaceOnUse"><stop stop-color="#ca2134"/><stop offset="1" stop-color="#e82c41" stop-opacity="0"/></radialGradient><linearGradient id="c" x1="62" x2="71.5" y1="92.5" y2="83" gradientUnits="userSpaceOnUse"><stop stop-color="#eb4824"/><stop offset="1" stop-color="#8b1321"/></linearGradient><linearGradient id="d" x1="42" x2="96" y1="54" y2="0" gradientUnits="userSpaceOnUse"><stop stop-color="#830b48"/><stop offset=".12" stop-color="#aa1d2d"/><stop offset=".251" stop-color="#ca2134"/><stop offset="1" stop-color="#cd3e1d"/></linearGradient><linearGradient id="g" x1="74" x2="33" y1="19.5" y2="60.5" gradientUnits="userSpaceOnUse"><stop stop-color="#ff835c"/><stop offset=".752" stop-color="#eb4824"/><stop offset="1" stop-color="#ca2134"/></linearGradient><linearGradient id="j" x1="36" x2="62" y1="66" y2="40" gradientUnits="userSpaceOnUse"><stop stop-color="#ff835c"/><stop offset=".23" stop-color="#ff9c70"/><stop offset="1" stop-color="#ffb357"/></linearGradient><clipPath id="a"><path fill="#fff" d="M0 0h96v96H0z"/></clipPath><clipPath id="b"><path fill="#fff" d="M0 0h96v96H0z"/></clipPath></defs></svg>