<svg xmlns="http://www.w3.org/2000/svg" width="96" height="96" fill="none" viewBox="0 0 96 96"><g clip-path="url(#a)"><path fill="url(#b)" d="M20.745 68.902c-2.077.754-3.17 3.064-2.17 5.034a33 33 0 0 0 58.688.325c1.022-1.959-.045-4.28-2.113-5.058l-1.916-.72c-2.068-.777-4.346.294-5.47 2.196a22.954 22.954 0 0 1-39.65-.22c-1.102-1.914-3.369-3.01-5.445-2.256z"/><path fill="url(#c)" d="m36.386 53.647 5.952-5.97a8 8 0 0 1 11.33 0l5.952 5.97a8 8 0 0 0 5.666 2.35h6.719c13.255 0 24.001-10.745 24.001-24V16.45c0-2.805-1.448-5.456-4.02-6.574C77.5 3.58 55.288 3.994 48.003 3.994S18.505 3.58 4.021 9.876C1.448 10.994 0 13.646 0 16.45v15.546c0 13.256 10.746 24.002 24.002 24.002h6.719a8 8 0 0 0 5.665-2.351"/><rect width="18.001" height="8.001" x="39.002" y="11.995" fill="#0078d4" rx="4"/></g><defs><linearGradient id="b" x1="38.002" x2="61.504" y1="58.998" y2="100.501" gradientUnits="userSpaceOnUse"><stop stop-color="#22b8f1"/><stop offset="1" stop-color="#018de1"/></linearGradient><linearGradient id="c" x1="35.48" x2="82.44" y1="-7.311" y2="57.389" gradientUnits="userSpaceOnUse"><stop stop-color="#50e6ff"/><stop offset=".676" stop-color="#0095e6"/><stop offset="1" stop-color="#0078d4"/></linearGradient><clipPath id="a"><path fill="#fff" d="M0 0h96v96H0z"/></clipPath></defs></svg>