<svg xmlns="http://www.w3.org/2000/svg" width="96" height="96" fill="none" viewBox="0 0 96 96"><g clip-path="url(#a)"><g clip-path="url(#b)"><path fill="url(#c)" d="m38.103 71.692-6.45 19.35c-1.534 4.602-7.17 6.286-10.978 3.28L4.899 81.868A8.89 8.89 0 0 1 10.408 66H46a8.325 8.325 0 0 0-7.897 5.692"/><path fill="url(#d)" d="m38.103 71.692-6.45 19.35c-1.534 4.602-7.17 6.286-10.978 3.28L4.899 81.868A8.89 8.89 0 0 1 10.408 66H46a8.325 8.325 0 0 0-7.897 5.692"/><path fill="url(#e)" d="M24.325 30h36.509c13.947 0 28.313 10.024 24.452 21.588l10.12-30.314C98.191 13.115 89.451 0 69.818 0H30.325a6 6 0 0 0-5.693 4.103l-6 18C17.337 25.988 20.23 30 24.324 30"/><path fill="url(#f)" d="M24.325 30h36.509c13.947 0 28.313 10.024 24.452 21.588l10.12-30.314C98.191 13.115 89.451 0 69.818 0H30.325a6 6 0 0 0-5.693 4.103l-6 18C17.337 25.988 20.23 30 24.324 30"/><path fill="url(#g)" d="M59.833 66H11.208a10 10 0 0 0-9.486 6.834l9.999-29.996A10 10 0 0 1 21.208 36h48.607C83.266 36 92.62 29.67 95.5 21.026L85.294 51.697C82.952 58.694 74.5 66 59.833 66"/><path fill="url(#h)" d="M59.833 66H11.208a10 10 0 0 0-9.486 6.834l9.999-29.996A10 10 0 0 1 21.208 36h48.607C83.266 36 92.62 29.67 95.5 21.026L85.294 51.697C82.952 58.694 74.5 66 59.833 66"/></g></g><defs><linearGradient id="c" x1="3.999" x2="15.999" y1="70" y2="105.5" gradientUnits="userSpaceOnUse"><stop stop-color="#309c61"/><stop offset="1" stop-color="#1ec8b0"/></linearGradient><linearGradient id="e" x1="30" x2="90.415" y1="12.5" y2="29.185" gradientUnits="userSpaceOnUse"><stop stop-color="#20ac9d"/><stop offset=".568" stop-color="#1a7f7c"/><stop offset="1" stop-color="#024169"/></linearGradient><linearGradient id="f" x1="60" x2="75.5" y1="1" y2="42.5" gradientUnits="userSpaceOnUse"><stop stop-color="#1a7f7c" stop-opacity="0"/><stop offset=".589" stop-color="#004695" stop-opacity=".6"/><stop offset="1" stop-color="#003580"/></linearGradient><linearGradient id="g" x1="16" x2="74" y1="41" y2="65.5" gradientUnits="userSpaceOnUse"><stop stop-color="#76eb95"/><stop offset=".179" stop-color="#52d17c"/><stop offset=".714" stop-color="#22918b"/><stop offset="1" stop-color="#0c74a1"/></linearGradient><linearGradient id="h" x1="21" x2="11.5" y1="53.5" y2="49.5" gradientUnits="userSpaceOnUse"><stop stop-color="#52d17c" stop-opacity="0"/><stop offset="1" stop-color="#b0f098"/></linearGradient><clipPath id="a"><path fill="#fff" d="M0 0h96v96H0z"/></clipPath><clipPath id="b"><path fill="#fff" d="M0 0h96v96H0z"/></clipPath><radialGradient id="d" cx="0" cy="0" r="1" gradientTransform="matrix(0 -44 55.1631 0 25.5 102)" gradientUnits="userSpaceOnUse"><stop offset=".615" stop-color="#1e794a" stop-opacity="0"/><stop offset="1" stop-color="#1e794a"/></radialGradient></defs></svg>