<svg xmlns="http://www.w3.org/2000/svg" width="96" height="96" fill="none" viewBox="0 0 96 96"><g clip-path="url(#a)"><g clip-path="url(#b)"><path fill="url(#c)" d="m44.155 9.772 18.77 32.848a10.85 10.85 0 0 1 0 10.76l-18.77 32.848c-5.374 9.405-18.936 9.406-24.31 0L2.253 55.442a15 15 0 0 1 0-14.884L19.844 9.772c5.374-9.405 18.936-9.405 24.31 0"/><path fill="url(#d)" d="m44.155 9.772 18.77 32.848a10.85 10.85 0 0 1 0 10.76l-18.77 32.848c-5.374 9.405-18.936 9.406-24.31 0L2.253 55.442a15 15 0 0 1 0-14.884L19.844 9.772c5.374-9.405 18.936-9.405 24.31 0"/><path fill="url(#e)" d="M66 48 44.155 86.228c-5.374 9.405-18.936 9.405-24.31 0L2 55c5.306 9.285 18.694 9.285 24 0l22-38.5z"/><path fill="url(#f)" d="M66 48 44.155 86.228c-5.374 9.405-18.936 9.405-24.31 0L2 55c5.306 9.285 18.694 9.285 24 0l22-38.5z"/><path fill="url(#g)" d="M54.946 28.655 82 76l11.388-19.93c2.858-5 2.858-11.14 0-16.14L76.155 9.771c-5.374-9.405-18.936-9.405-24.31 0L41.054 28.655c3.071-5.374 10.82-5.374 13.892 0"/><path fill="url(#h)" d="M54.946 28.655 82 76l11.388-19.93c2.858-5 2.858-11.14 0-16.14L76.155 9.771c-5.374-9.405-18.936-9.405-24.31 0L41.054 28.655c3.071-5.374 10.82-5.374 13.892 0"/><path fill="url(#i)" d="M79.732 23.97 48 79.5l3.844 6.728c5.375 9.405 18.937 9.406 24.311 0l17.876-31.282a14 14 0 0 0 0-13.892l-14.3-25.023a8 8 0 0 1 0 7.938"/><path fill="url(#j)" d="M51.845 86.228 48 79.5 66 48l16 28-5.845 10.228c-5.374 9.405-18.936 9.405-24.31 0"/></g></g><defs><linearGradient id="c" x1="16" x2="27.999" y1="60.5" y2="5" gradientUnits="userSpaceOnUse"><stop stop-color="#520b56"/><stop offset="1" stop-color="#742774"/></linearGradient><linearGradient id="e" x1="12" x2="59.5" y1="71" y2="41.5" gradientUnits="userSpaceOnUse"><stop stop-color="#d467b9"/><stop offset=".308" stop-color="#982f90"/><stop offset="1" stop-color="#742774"/></linearGradient><linearGradient id="f" x1="44" x2="67.5" y1="53.5" y2="51" gradientUnits="userSpaceOnUse"><stop stop-color="#742774" stop-opacity="0"/><stop offset="1" stop-color="#520b56"/></linearGradient><linearGradient id="g" x1="43" x2="82.5" y1="29" y2="56" gradientUnits="userSpaceOnUse"><stop stop-color="#e9a1cb"/><stop offset=".408" stop-color="#d467b9"/><stop offset="1" stop-color="#bb35a4"/></linearGradient><linearGradient id="h" x1="67.5" x2="81" y1="23.5" y2="26.5" gradientUnits="userSpaceOnUse"><stop stop-color="#e48cc7" stop-opacity="0"/><stop offset="1" stop-color="#bb35a4"/></linearGradient><linearGradient id="i" x1="89.257" x2="76.451" y1="77.162" y2="41.384" gradientUnits="userSpaceOnUse"><stop stop-color="#e48cc7"/><stop offset="1" stop-color="#f7c4e2"/></linearGradient><linearGradient id="j" x1="75.2" x2="54.869" y1="77.58" y2="32.078" gradientUnits="userSpaceOnUse"><stop stop-color="#e48cc7" stop-opacity="0"/><stop offset=".677" stop-color="#d467b9" stop-opacity=".5"/><stop offset="1" stop-color="#bb35a4"/></linearGradient><clipPath id="a"><path fill="#fff" d="M0 0h96v96H0z"/></clipPath><clipPath id="b"><path fill="#fff" d="M0 0h96v96H0z"/></clipPath><radialGradient id="d" cx="0" cy="0" r="1" gradientTransform="rotate(123.811 13.615 12.408)scale(65.5935 20.3157)" gradientUnits="userSpaceOnUse"><stop offset=".512" stop-color="#4c1e4c" stop-opacity="0"/><stop offset="1" stop-color="#4c1e4c"/></radialGradient></defs></svg>