<svg xmlns="http://www.w3.org/2000/svg" width="96" height="96" fill="none" viewBox="0 0 96 96"><g clip-path="url(#a)"><g clip-path="url(#b)"><path fill="url(#c)" d="m16.996 59.682 36.837-27.713a9.725 9.725 0 0 1 11.68-.008l25.204 18.901c5.181 3.886 5.188 11.656.013 15.55L54.195 93.908a10.3 10.3 0 0 1-12.389-.002L16.992 75.222c-5.168-3.892-5.167-11.651.004-15.54"/><path fill="url(#d)" d="m16.996 59.682 36.837-27.713a9.725 9.725 0 0 1 11.68-.008l25.204 18.901c5.181 3.886 5.188 11.656.013 15.55L54.195 93.908a10.3 10.3 0 0 1-12.389-.002L16.992 75.222c-5.168-3.892-5.167-11.651.004-15.54"/><path fill="url(#e)" fill-opacity=".6" d="m16.921 59.673 3.85-2.92L62.148 87.93l-7.953 5.98a10.3 10.3 0 0 1-12.386-.003l-24.86-18.718c-5.155-3.882-5.17-11.616-.028-15.516"/><path fill="url(#f)" d="m16.921 59.673 3.85-2.92L62.148 87.93l-7.953 5.98a10.3 10.3 0 0 1-12.386-.003l-24.86-18.718c-5.155-3.882-5.17-11.616-.028-15.516"/><path fill="url(#g)" d="M5.296 29.593 41.804 2.097a10.3 10.3 0 0 1 12.392 0l24.812 18.681c5.168 3.892 5.167 11.651-.003 15.54L42.17 64.03a9.725 9.725 0 0 1-11.684.007L5.309 45.139C.132 41.253.125 33.488 5.296 29.593"/><path fill="url(#h)" d="M5.296 29.593 41.804 2.097a10.3 10.3 0 0 1 12.392 0l24.812 18.681c5.168 3.892 5.167 11.651-.003 15.54L42.17 64.03a9.725 9.725 0 0 1-11.684.007L5.309 45.139C.132 41.253.125 33.488 5.296 29.593"/><path fill="url(#i)" d="M5.296 29.593 41.804 2.097a10.3 10.3 0 0 1 12.392 0l24.812 18.681c5.168 3.892 5.167 11.651-.003 15.54L42.17 64.03a9.725 9.725 0 0 1-11.684.007L5.309 45.139C.132 41.253.125 33.488 5.296 29.593"/><path fill="url(#j)" fill-opacity=".6" d="m33.899 8.128 7.899-5.992a10.3 10.3 0 0 1 12.42-.022L79.052 20.81c5.155 3.881 5.17 11.616.028 15.516l-3.85 2.92z"/><path fill="url(#k)" d="m33.899 8.128 7.899-5.992a10.3 10.3 0 0 1 12.42-.022L79.052 20.81c5.155 3.881 5.17 11.616.028 15.516l-3.85 2.92z"/><path fill="url(#l)" d="m43.156 65.666 38.868-15.697a9.32 9.32 0 0 1 9.081 1.186L65.56 31.995a13.05 13.05 0 0 0-12.715-1.66L13.976 46.03a9.32 9.32 0 0 1-9.081-1.186l25.547 19.16a13.05 13.05 0 0 0 12.714 1.66"/></g></g><defs><linearGradient id="c" x1="45.569" x2="72.798" y1="98.569" y2="40.22" gradientUnits="userSpaceOnUse"><stop stop-color="#6864f6"/><stop offset=".529" stop-color="#4a43cb"/><stop offset="1" stop-color="#5b2ab5"/></linearGradient><linearGradient id="e" x1="56.499" x2="12.072" y1="61.607" y2="70.115" gradientUnits="userSpaceOnUse"><stop stop-color="#a3a3ff" stop-opacity="0"/><stop offset="1" stop-color="#a3a3ff"/></linearGradient><linearGradient id="g" x1="71.672" x2="8.441" y1="5.519" y2="47.394" gradientUnits="userSpaceOnUse"><stop stop-color="#ac80ff"/><stop offset=".66" stop-color="#7b7bff"/><stop offset="1" stop-color="#5750e2"/></linearGradient><linearGradient id="i" x1="22.282" x2="7.409" y1="19.037" y2="49.241" gradientUnits="userSpaceOnUse"><stop stop-color="#7b7bff" stop-opacity="0"/><stop offset="1" stop-color="#2052cb"/></linearGradient><linearGradient id="j" x1="39.169" x2="81.72" y1="31.989" y2="18.385" gradientUnits="userSpaceOnUse"><stop stop-color="#babaff" stop-opacity="0"/><stop offset="1" stop-color="#babaff"/></linearGradient><linearGradient id="l" x1="21" x2="70.722" y1="69.5" y2="29.643" gradientUnits="userSpaceOnUse"><stop stop-color="#58aafe"/><stop offset=".283" stop-color="#8f8fff"/><stop offset=".672" stop-color="#a3a3ff"/><stop offset="1" stop-color="#ceb0ff"/></linearGradient><radialGradient id="d" cx="0" cy="0" r="1" gradientTransform="matrix(5.08644 19.5482 -61.0372 19.6565 67.707 51.756)" gradientUnits="userSpaceOnUse"><stop stop-color="#312a9a"/><stop offset="1" stop-color="#4a43cb" stop-opacity="0"/></radialGradient><radialGradient id="f" cx="0" cy="0" r="1" gradientTransform="rotate(34.661 -79.319 65.597)scale(26.4656 13.4356)" gradientUnits="userSpaceOnUse"><stop stop-color="#4a43cb"/><stop offset="1" stop-color="#6864f6" stop-opacity="0"/></radialGradient><radialGradient id="h" cx="0" cy="0" r="1" gradientTransform="matrix(-3.23682 -14.4039 45.1794 -12.5656 31.067 42.186)" gradientUnits="userSpaceOnUse"><stop stop-color="#1b44b1"/><stop offset="1" stop-color="#7b7bff" stop-opacity="0"/></radialGradient><radialGradient id="k" cx="0" cy="0" r="1" gradientTransform="rotate(234.348 43.833 4.545)scale(24.9712 18.783)" gradientUnits="userSpaceOnUse"><stop stop-color="#5750e2"/><stop offset="1" stop-color="#8f8fff" stop-opacity="0"/></radialGradient><clipPath id="a"><path fill="#fff" d="M0 0h96v96H0z"/></clipPath><clipPath id="b"><path fill="#fff" d="M0 0h96v96H0z"/></clipPath></defs></svg>