<svg xmlns="http://www.w3.org/2000/svg" width="96" height="96" fill="none" viewBox="0 0 96 96"><g clip-path="url(#a)"><g clip-path="url(#b)"><path fill="url(#c)" d="M52.51 3a10 10 0 0 1 7.473 3.356l22.675 25.509C88.91 38.9 85 50.066 75.725 51.663L21.5 61l6.8-7.687a8 8 0 0 0-.013-10.615L7.794 19.644C2.062 13.194 6.64 3 15.268 3z"/><path fill="url(#d)" d="M15.268 93C6.64 93 2.062 82.805 7.794 76.356l51.3-57.712a10 10 0 0 0 0-13.288L57 3l34.095 38.356a10 10 0 0 1 0 13.288l-31.112 35A10 10 0 0 1 52.51 93z"/><path fill="url(#e)" d="M15.268 93C6.64 93 2.062 82.805 7.794 76.356l51.3-57.712a10 10 0 0 0 0-13.288L57 3l34.095 38.356a10 10 0 0 1 0 13.288l-31.112 35A10 10 0 0 1 52.51 93z"/><path fill="url(#f)" d="M38.361 93c-5.177 0-7.924-6.117-4.484-9.986l41.217-46.37a10 10 0 0 0 0-13.288L71 18.75l20.094 22.606a10 10 0 0 1 0 13.288l-31.11 35A10 10 0 0 1 52.508 93z"/></g></g><defs><linearGradient id="c" x1="48" x2="14" y1="31.5" y2="-2.5" gradientUnits="userSpaceOnUse"><stop stop-color="#102784"/><stop offset=".274" stop-color="#1b44b1"/><stop offset="1" stop-color="#2764e7"/></linearGradient><linearGradient id="d" x1="76.5" x2="11.5" y1="25" y2="91.5" gradientUnits="userSpaceOnUse"><stop stop-color="#0fafff"/><stop offset=".178" stop-color="#4894fe"/><stop offset="1" stop-color="#2764e7"/></linearGradient><linearGradient id="e" x1="28.5" x2="38.5" y1="72" y2="83.5" gradientUnits="userSpaceOnUse"><stop stop-color="#2764e7" stop-opacity="0"/><stop offset="1" stop-color="#2052cb"/></linearGradient><linearGradient id="f" x1="89" x2="43" y1="38.5" y2="90.5" gradientUnits="userSpaceOnUse"><stop stop-color="#6ce0ff"/><stop offset=".212" stop-color="#66c0ff"/><stop offset="1" stop-color="#58aafe"/></linearGradient><clipPath id="a"><path fill="#fff" d="M0 0h96v96H0z"/></clipPath><clipPath id="b"><path fill="#fff" d="M0 0h96v96H0z"/></clipPath></defs></svg>