<svg xmlns="http://www.w3.org/2000/svg" width="96" height="96" fill="none" viewBox="0 0 96 96"><path fill="url(#a)" d="M48 96h-2.431a40 40 0 0 1-28.285-11.716l-2.041-2.041C11.463 78.463 14.14 72 19.485 72H42c6.627 0 12-5.373 12-12V22.657a4 4 0 0 1 1.172-2.829l17-17a4 4 0 0 1 5.656 0l17 17A4 4 0 0 1 96 22.657V48c0 26.51-21.49 48-48 48"/><path fill="url(#b)" d="M48 96h-2.431a40 40 0 0 1-28.285-11.716l-2.041-2.041C11.463 78.463 14.14 72 19.485 72H42c6.627 0 12-5.373 12-12V22.657a4 4 0 0 1 1.172-2.829l17-17a4 4 0 0 1 5.656 0l17 17A4 4 0 0 1 96 22.657V48c0 26.51-21.49 48-48 48"/><path fill="url(#c)" d="M28 88h-3.686a8 8 0 0 1-5.657-2.343l-8-8C5.617 72.617 9.187 64 16.314 64H25c6.627 0 12-5.373 12-12V23.657a4 4 0 0 1 1.172-2.829L53.193 5.807a4 4 0 0 1 5.635-.022L74.807 21.52A4 4 0 0 1 76 24.37V40c0 26.51-21.49 48-48 48"/><path fill="url(#d)" d="M28 88h-3.686a8 8 0 0 1-5.657-2.343l-8-8C5.617 72.617 9.187 64 16.314 64H25c6.627 0 12-5.373 12-12V23.657a4 4 0 0 1 1.172-2.829L53.193 5.807a4 4 0 0 1 5.635-.022L74.807 21.52A4 4 0 0 1 76 24.37V40c0 26.51-21.49 48-48 48"/><path fill="url(#e)" d="M28 88h-3.686a8 8 0 0 1-5.657-2.343l-8-8C5.617 72.617 9.187 64 16.314 64H25c6.627 0 12-5.373 12-12V23.657a4 4 0 0 1 1.172-2.829L53.193 5.807a4 4 0 0 1 5.635-.022L74.807 21.52A4 4 0 0 1 76 24.37V40c0 26.51-21.49 48-48 48"/><path fill="url(#f)" d="m31.506 68.998-9.073 2.823c-6.103 1.898-8.005 9.6-3.49 14.122L3.15 70.15C-.99 66.01-.136 59.08 4.884 56.069l5.406-3.243A20 20 0 0 0 20 35.676v-8.02a4 4 0 0 1 1.172-2.828l13-13a4 4 0 0 1 5.656 0l13 13A4 4 0 0 1 54 27.657v10.786a32 32 0 0 1-22.494 30.555"/><path fill="url(#g)" d="m31.506 68.998-9.073 2.823c-6.103 1.898-8.005 9.6-3.49 14.122L3.15 70.15C-.99 66.01-.136 59.08 4.884 56.069l5.406-3.243A20 20 0 0 0 20 35.676v-8.02a4 4 0 0 1 1.172-2.828l13-13a4 4 0 0 1 5.656 0l13 13A4 4 0 0 1 54 27.657v10.786a32 32 0 0 1-22.494 30.555"/><defs><linearGradient id="a" x1="79" x2="44" y1="3" y2="96" gradientUnits="userSpaceOnUse"><stop stop-color="#0067bf"/><stop offset=".515" stop-color="#004695"/><stop offset="1" stop-color="#163697"/></linearGradient><linearGradient id="c" x1="56" x2="26" y1="7" y2="96" gradientUnits="userSpaceOnUse"><stop stop-color="#26cfe8"/><stop offset=".439" stop-color="#0094f0"/><stop offset="1" stop-color="#0067bf"/></linearGradient><linearGradient id="d" x1="29" x2="7.5" y1="84.5" y2="86.5" gradientUnits="userSpaceOnUse"><stop stop-color="#2052cb" stop-opacity="0"/><stop offset="1" stop-color="#163697"/></linearGradient><linearGradient id="f" x1="37" x2="6" y1="13" y2="89.5" gradientUnits="userSpaceOnUse"><stop stop-color="#9ff2e4"/><stop offset=".285" stop-color="#6ce0ff"/><stop offset=".505" stop-color="#3bd5ff"/><stop offset="1" stop-color="#0fafff"/></linearGradient><linearGradient id="g" x1="14.5" x2="3" y1="70" y2="81" gradientUnits="userSpaceOnUse"><stop stop-color="#29c3ff" stop-opacity="0"/><stop offset="1" stop-color="#0078d4"/></linearGradient><radialGradient id="b" cx="0" cy="0" r="1" gradientTransform="matrix(0 55.5 -37.4255 0 48 40.5)" gradientUnits="userSpaceOnUse"><stop offset=".599" stop-color="#163697"/><stop offset="1" stop-color="#163697" stop-opacity="0"/></radialGradient><radialGradient id="e" cx="0" cy="0" r="1" gradientTransform="matrix(0 51 -50.7683 0 11 45)" gradientUnits="userSpaceOnUse"><stop offset=".53" stop-color="#1b44b1"/><stop offset="1" stop-color="#2052cb" stop-opacity="0"/></radialGradient></defs></svg>