<svg xmlns="http://www.w3.org/2000/svg" width="96" height="96" fill="none" viewBox="0 0 96 96"><g clip-path="url(#a)"><mask id="b" width="96" height="96" x="0" y="0" mask-type="alpha" maskUnits="userSpaceOnUse"><path fill="#c4c4c4" fill-rule="evenodd" d="M49.993 1.147a4 4 0 0 0-3.988 0l-25.999 14.95A4 4 0 0 0 18 19.563v5.595l-7.988 4.574A4 4 0 0 0 8 33.204v7.871L1.969 44.63A4 4 0 0 0 0 48.076v17.848a4 4 0 0 0 1.969 3.446l44 25.933a4 4 0 0 0 4.062 0l44-25.933A4 4 0 0 0 96 65.924V48.076a4 4 0 0 0-1.969-3.446l-6.039-3.56v-7.866a4 4 0 0 0-2.012-3.471l-7.981-4.57v-5.599a4 4 0 0 0-2.006-3.468z" clip-rule="evenodd"/></mask><g mask="url(#b)"><path fill="url(#c)" d="M94.031 44.63A4 4 0 0 1 96 48.076v17.848a4 4 0 0 1-1.969 3.446l-44 25.933a4 4 0 0 1-4.062 0l-44-25.933A4 4 0 0 1 0 65.924V48.076a4 4 0 0 1 1.969-3.446l44-25.933a4 4 0 0 1 4.062 0z"/><path fill="url(#d)" d="M85.98 61.248a4 4 0 0 0 2.012-3.47V33.203a4 4 0 0 0-2.012-3.471L49.984 9.119a4 4 0 0 0-3.976 0L10.012 29.733A4 4 0 0 0 8 33.204v24.573a4 4 0 0 0 2.012 3.471l35.996 20.614a4 4 0 0 0 3.976 0z"/><g filter="url(#e)"><path fill="#000" fill-opacity=".32" d="M46.005 3.147a4 4 0 0 1 3.988 0l26 14.95a4 4 0 0 1 2.006 3.467v29.872a4 4 0 0 1-2.006 3.468l-26 14.95a4 4 0 0 1-3.988 0l-25.999-14.95A4 4 0 0 1 18 51.436V21.564a4 4 0 0 1 2.006-3.468z"/></g><g filter="url(#f)"><path fill="#000" fill-opacity=".24" d="M46.005 1.527a4 4 0 0 1 3.988 0l26 14.95a4 4 0 0 1 2.006 3.467v29.872a4 4 0 0 1-2.006 3.467l-26 14.95a4 4 0 0 1-3.988 0l-25.999-14.95A4 4 0 0 1 18 49.817V19.944a4 4 0 0 1 2.006-3.467z"/></g><path fill="url(#g)" d="M46.005 1.147a4 4 0 0 1 3.988 0l26 14.95a4 4 0 0 1 2.006 3.467v29.872a4 4 0 0 1-2.006 3.468l-26 14.95a4 4 0 0 1-3.988 0l-25.999-14.95A4 4 0 0 1 18 49.436V19.564a4 4 0 0 1 2.006-3.468z"/><path fill="url(#h)" d="M46.006 1.146a4 4 0 0 1 3.986 0l25.78 14.816a1.5 1.5 0 0 1 .016 2.591L50.036 33.794a4 4 0 0 1-4.074 0l-25.746-15.24a1.5 1.5 0 0 1 .016-2.592z"/></g></g><defs><linearGradient id="c" x1="4.5" x2="154.25" y1="-2" y2="-23.377" gradientUnits="userSpaceOnUse"><stop offset=".209" stop-color="#158915"/><stop offset="1" stop-color="#065f18"/></linearGradient><linearGradient id="d" x1="87.992" x2="70.124" y1="83" y2="-5.538" gradientUnits="userSpaceOnUse"><stop stop-color="#34a117"/><stop offset="1" stop-color="#6ad116"/></linearGradient><linearGradient id="g" x1="18" x2="86.561" y1="0" y2="60.428" gradientUnits="userSpaceOnUse"><stop stop-color="#8fdc50"/><stop offset="1" stop-color="#7bca52"/></linearGradient><linearGradient id="h" x1="18.94" x2="23.034" y1=".227" y2="40.86" gradientUnits="userSpaceOnUse"><stop stop-color="#c3f488"/><stop offset="1" stop-color="#8fdc50"/></linearGradient><filter id="e" width="75.999" height="83.772" x="10" y="-5.386" color-interpolation-filters="sRGB" filterUnits="userSpaceOnUse"><feFlood flood-opacity="0" result="BackgroundImageFix"/><feBlend in="SourceGraphic" in2="BackgroundImageFix" result="shape"/><feGaussianBlur result="effect1_foregroundBlur" stdDeviation="4"/></filter><filter id="f" width="61.519" height="69.292" x="17.24" y=".234" color-interpolation-filters="sRGB" filterUnits="userSpaceOnUse"><feFlood flood-opacity="0" result="BackgroundImageFix"/><feBlend in="SourceGraphic" in2="BackgroundImageFix" result="shape"/><feGaussianBlur result="effect1_foregroundBlur" stdDeviation=".38"/></filter><clipPath id="a"><path fill="#fff" d="M0 0h96v96H0z"/></clipPath></defs></svg>