<svg xmlns="http://www.w3.org/2000/svg" width="96" height="96" fill="none" viewBox="0 0 96 96"><path fill="url(#a)" d="M0 6a6 6 0 0 1 6-6h44a6 6 0 0 1 6 6v30a6 6 0 0 1-6 6H10C4.477 42 0 37.523 0 32z"/><path fill="url(#b)" d="M0 6a6 6 0 0 1 6-6h44a6 6 0 0 1 6 6v30a6 6 0 0 1-6 6H10C4.477 42 0 37.523 0 32z"/><path fill="url(#c)" d="M0 90a6 6 0 0 0 6 6h44a6 6 0 0 0 6-6V60a6 6 0 0 0-6-6H10C4.477 54 0 58.477 0 64z"/><path fill="url(#d)" d="M0 90a6 6 0 0 0 6 6h44a6 6 0 0 0 6-6V60a6 6 0 0 0-6-6H10C4.477 54 0 58.477 0 64z"/><path fill="url(#e)" d="M30 22c-5.523 0-10 4.477-10 10s-4.477 10-10 10h34V22z"/><path fill="url(#f)" d="M30 22c-5.523 0-10 4.477-10 10s-4.477 10-10 10h34V22z"/><path fill="url(#g)" d="M30 74c-5.523 0-10-4.477-10-10s-4.477-10-10-10h34v20z"/><path fill="url(#h)" d="M30 74c-5.523 0-10-4.477-10-10s-4.477-10-10-10h34v20z"/><path fill="url(#i)" d="M40 32c0-5.523-4.477-10-10-10h56c5.523 0 10 4.477 10 10v32c0 5.523-4.477 10-10 10H30c5.523 0 10-4.477 10-10z"/><defs><linearGradient id="a" x1="19" x2="19" y1="40.5" y2="0" gradientUnits="userSpaceOnUse"><stop stop-color="#ca2134"/><stop offset=".384" stop-color="#eb4824"/><stop offset="1" stop-color="#ff9c70"/></linearGradient><linearGradient id="c" x1="30" x2="20" y1="54" y2="96" gradientUnits="userSpaceOnUse"><stop stop-color="#830b48"/><stop offset=".407" stop-color="#8b1321"/><stop offset="1" stop-color="#ca2134"/></linearGradient><linearGradient id="e" x1="43.5" x2="43.5" y1="23" y2="48" gradientUnits="userSpaceOnUse"><stop stop-color="#ff6f47"/><stop offset=".543" stop-color="#eb4824"/><stop offset=".681" stop-color="#e82c41"/><stop offset="1" stop-color="#ca2134"/></linearGradient><linearGradient id="f" x1="21.5" x2="44" y1="40.5" y2="36" gradientUnits="userSpaceOnUse"><stop stop-color="#fb5937" stop-opacity="0"/><stop offset="1" stop-color="#ca2134"/></linearGradient><linearGradient id="g" x1="40.5" x2="40.5" y1="54" y2="73" gradientUnits="userSpaceOnUse"><stop stop-color="#fb5937"/><stop offset=".5" stop-color="#ca2134"/><stop offset="1" stop-color="#b91d6b"/></linearGradient><linearGradient id="h" x1="27" x2="43" y1="56" y2="62" gradientUnits="userSpaceOnUse"><stop stop-color="#e82c41" stop-opacity="0"/><stop offset="1" stop-color="#9f1459"/></linearGradient><linearGradient id="i" x1="67.5" x2="67.5" y1="22.5" y2="73.5" gradientUnits="userSpaceOnUse"><stop stop-color="#ffc470"/><stop offset=".216" stop-color="#ff9c70"/><stop offset=".778" stop-color="#ff835c"/><stop offset="1" stop-color="#fb5937"/></linearGradient><radialGradient id="b" cx="0" cy="0" r="1" gradientTransform="matrix(-71.5 0 0 -26.6664 52 40)" gradientUnits="userSpaceOnUse"><stop offset=".439" stop-color="#aa1d2d"/><stop offset="1" stop-color="#e82c41" stop-opacity="0"/></radialGradient><radialGradient id="d" cx="0" cy="0" r="1" gradientTransform="matrix(-49.5 0 0 -24.8947 46 59)" gradientUnits="userSpaceOnUse"><stop offset=".443" stop-color="#670938"/><stop offset="1" stop-color="#aa1d2d" stop-opacity="0"/></radialGradient></defs></svg>