<svg xmlns="http://www.w3.org/2000/svg" width="96" height="96" fill="none" viewBox="0 0 96 96"><g clip-path="url(#a)"><mask id="b" width="86" height="96" x="5" y="0" mask-type="alpha" maskUnits="userSpaceOnUse"><path fill="#fff" d="M46.035.608a4 4 0 0 1 3.93 0l39 21.994A4 4 0 0 1 91 26.086v43.828a4 4 0 0 1-2.035 3.484l-39 21.994a4 4 0 0 1-3.93 0l-39-21.994A4 4 0 0 1 5 69.914V26.086a4 4 0 0 1 2.035-3.484z"/></mask><g mask="url(#b)"><path fill="url(#c)" d="M46.015 1.134a4 4 0 0 1 3.97 0l38 21.714A4 4 0 0 1 90 26.321V69.68a4 4 0 0 1-2.016 3.473l-38 21.714a4 4 0 0 1-3.969 0l-38-21.714A4 4 0 0 1 6 69.679V26.32a4 4 0 0 1 2.015-3.473z"/><path fill="url(#d)" fill-rule="evenodd" d="M6 47.772v-.062l.055.031L32 33.5l.862 29.745 13.136 7.597a4 4 0 0 0 4.005 0L90 47.71V28.087v42.139a4 4 0 0 1-2.053 3.494l-38 21.18a4 4 0 0 1-3.894 0l-38-21.18A4 4 0 0 1 6 70.226V47.772" clip-rule="evenodd"/><g filter="url(#e)"><path fill="#000" fill-opacity=".24" d="M46.017 25.765a4 4 0 0 1 3.968-.002L66.99 35.47a4 4 0 0 1 2.017 3.474v19.095a4 4 0 0 1-2.013 3.472l-17.008 9.735a4 4 0 0 1-3.97.003L29.02 61.544a4 4 0 0 1-2.016-3.474V38.956a4 4 0 0 1 2.014-3.472z"/></g><g filter="url(#f)"><path fill="#000" fill-opacity=".32" d="M46.017 26.765a4 4 0 0 1 3.968-.002L66.99 36.47a4 4 0 0 1 2.017 3.474v19.095a4 4 0 0 1-2.013 3.472l-17.008 9.735a4 4 0 0 1-3.97.003L29.02 62.544a4 4 0 0 1-2.016-3.474V39.956a4 4 0 0 1 2.014-3.472z"/></g><path fill="url(#g)" d="M46.017 25.382a4 4 0 0 1 3.968-.002l17.004 9.707a4 4 0 0 1 2.017 3.474v19.096a4 4 0 0 1-2.013 3.471l-17.008 9.736a4 4 0 0 1-3.97.002L29.02 61.16a4 4 0 0 1-2.016-3.473V38.574a4 4 0 0 1 2.014-3.473z"/><path fill="url(#h)" fill-rule="evenodd" d="m46.039 25.499-.003.001-17.287 9.745-.002.001q-.121.069-.236.145a1.25 1.25 0 0 0 .134 2.09l17.39 9.805a4 4 0 0 0 3.93 0l17.39-9.804a1.25 1.25 0 0 0 .134-2.091 4 4 0 0 0-.238-.146L49.964 25.5a4 4 0 0 0-3.925-.001" clip-rule="evenodd"/></g></g><defs><linearGradient id="c" x1="36.835" x2="71.151" y1="32.403" y2="88.469" gradientUnits="userSpaceOnUse"><stop stop-color="#0078d4"/><stop offset="1" stop-color="#2064ae"/></linearGradient><linearGradient id="d" x1="28.313" x2="61.893" y1="27.863" y2="97.173" gradientUnits="userSpaceOnUse"><stop stop-color="#40c4f5"/><stop offset="1" stop-color="#0095e6"/></linearGradient><linearGradient id="g" x1="34.17" x2="56.315" y1="28.492" y2="69.927" gradientUnits="userSpaceOnUse"><stop stop-color="#7cecff"/><stop offset="1" stop-color="#50e6ff"/></linearGradient><linearGradient id="h" x1="30.93" x2="37.003" y1="25.17" y2="52.04" gradientUnits="userSpaceOnUse"><stop stop-color="#a7f2ff"/><stop offset="1" stop-color="#7cecff"/></linearGradient><filter id="e" width="43.521" height="48.058" x="26.245" y="24.477" color-interpolation-filters="sRGB" filterUnits="userSpaceOnUse"><feFlood flood-opacity="0" result="BackgroundImageFix"/><feBlend in="SourceGraphic" in2="BackgroundImageFix" result="shape"/><feGaussianBlur result="effect1_foregroundBlur" stdDeviation=".38"/></filter><filter id="f" width="58.001" height="62.538" x="19.005" y="18.237" color-interpolation-filters="sRGB" filterUnits="userSpaceOnUse"><feFlood flood-opacity="0" result="BackgroundImageFix"/><feBlend in="SourceGraphic" in2="BackgroundImageFix" result="shape"/><feGaussianBlur result="effect1_foregroundBlur" stdDeviation="4"/></filter><clipPath id="a"><path fill="#fff" d="M0 0h96v96H0z"/></clipPath></defs></svg>