<svg xmlns="http://www.w3.org/2000/svg" width="96" height="96" fill="none" viewBox="0 0 96 96"><g clip-path="url(#a)"><g clip-path="url(#b)"><g clip-path="url(#c)"><path fill="url(#d)" d="M51.686 7.309 70.27 3.824A18.768 18.768 0 0 1 92.176 25.73L88.69 44.314a20 20 0 0 0 0 7.372l3.485 18.584A18.768 18.768 0 0 1 70.27 92.176L51.686 88.69a20 20 0 0 0-7.372 0L25.73 92.176A18.768 18.768 0 0 1 3.824 70.27L7.31 51.686a20 20 0 0 0 0-7.372L3.824 25.73A18.768 18.768 0 0 1 25.73 3.824L44.314 7.31a20 20 0 0 0 7.372 0"/><path fill="url(#e)" d="M51.686 7.309 70.27 3.824A18.768 18.768 0 0 1 92.176 25.73L88.69 44.314a20 20 0 0 0 0 7.372l3.485 18.584A18.768 18.768 0 0 1 70.27 92.176L51.686 88.69a20 20 0 0 0-7.372 0L25.73 92.176A18.768 18.768 0 0 1 3.824 70.27L7.31 51.686a20 20 0 0 0 0-7.372L3.824 25.73A18.768 18.768 0 0 1 25.73 3.824L44.314 7.31a20 20 0 0 0 7.372 0"/><path fill="url(#f)" d="M51.686 7.309 70.27 3.824A18.768 18.768 0 0 1 92.176 25.73L88.69 44.314a20 20 0 0 0 0 7.372l3.485 18.584A18.768 18.768 0 0 1 70.27 92.176L51.686 88.69a20 20 0 0 0-7.372 0L25.73 92.176A18.768 18.768 0 0 1 3.824 70.27L7.31 51.686a20 20 0 0 0 0-7.372L3.824 25.73A18.768 18.768 0 0 1 25.73 3.824L44.314 7.31a20 20 0 0 0 7.372 0"/><path fill="url(#g)" d="m88.691 51.686 3.485 18.584a18.77 18.77 0 0 1-5.009 16.56C94.179 79.64 94.124 68.125 87 61L60 34 87 9a18.77 18.77 0 0 1 5.176 16.73L88.69 44.314a20 20 0 0 0 0 7.372"/><path fill="url(#h)" d="M44.314 88.691 25.73 92.176a18.77 18.77 0 0 1-16.546-4.994C16.377 94.179 27.881 94.119 35 87l25-25c7.732-7.732 7.732-20.268 0-28l27.092 27.092a18.255 18.255 0 0 1 0 25.816l-.143.143a18.63 18.63 0 0 1-16.608 5.138L51.686 88.69a20 20 0 0 0-7.372 0"/><path fill="url(#i)" d="M7.309 44.314 3.824 25.73A18.77 18.77 0 0 1 8.818 9.184C1.821 16.377 1.881 27.881 9 35l25 25c7.732 7.732 20.268 7.732 28 0L34.908 87.092a18.255 18.255 0 0 1-25.816 0l-.143-.143a18.63 18.63 0 0 1-5.138-16.608L7.31 51.686a20 20 0 0 0 0-7.372"/><path fill="url(#j)" d="m86.5 35.5 1-1c6.904-6.904 6.904-18.096 0-25l-1-1c-6.904-6.904-18.096-6.904-25 0l-26 26c6.904-6.904 18.096-6.904 25 0l1 1c6.904 6.904 18.096 6.904 25 0"/><path fill="url(#k)" d="m86.5 35.5 1-1c6.904-6.904 6.904-18.096 0-25l-1-1c-6.904-6.904-18.096-6.904-25 0l-26 26c6.904-6.904 18.096-6.904 25 0l1 1c6.904 6.904 18.096 6.904 25 0"/><path fill="url(#l)" d="m35.5 34.5-1 1c-6.904 6.904-6.904 18.096 0 25l1 1c6.904 6.904 18.096 6.904 25 0l26-26c-6.904 6.904-18.096 6.904-25 0l-1-1c-6.904-6.904-18.096-6.904-25 0"/></g></g></g><defs><radialGradient id="e" cx="0" cy="0" r="1" gradientTransform="matrix(0 28 -28 0 48 51)" gradientUnits="userSpaceOnUse"><stop offset=".307" stop-color="#102784"/><stop offset="1" stop-color="#0067bf" stop-opacity="0"/></radialGradient><radialGradient id="f" cx="0" cy="0" r="1" gradientTransform="rotate(144.293 29.135 22.63)scale(39.4081 26.2721)" gradientUnits="userSpaceOnUse"><stop stop-color="#2052cb"/><stop offset="1" stop-color="#0078d4" stop-opacity="0"/></radialGradient><radialGradient id="j" cx="0" cy="0" r="1" gradientTransform="matrix(0 25 -25 0 71 14)" gradientUnits="userSpaceOnUse"><stop stop-color="#3bd5ff"/><stop offset=".423" stop-color="#29c3ff"/><stop offset="1" stop-color="#0094f0"/></radialGradient><radialGradient id="k" cx="0" cy="0" r="1" gradientTransform="rotate(-93.18 49.596 2.35)scale(36.0555)" gradientUnits="userSpaceOnUse"><stop offset=".374" stop-color="#2052cb"/><stop offset="1" stop-color="#29c3ff" stop-opacity="0"/></radialGradient><radialGradient id="l" cx="0" cy="0" r="1" gradientTransform="matrix(26.00004 15 -15 26.00004 39 42)" gradientUnits="userSpaceOnUse"><stop offset=".079" stop-color="#9ff0f9"/><stop offset=".318" stop-color="#6ce0ff"/><stop offset=".637" stop-color="#3bd5ff"/><stop offset="1" stop-color="#0fafff"/></radialGradient><linearGradient id="d" x1="40" x2="69" y1="7" y2="93" gradientUnits="userSpaceOnUse"><stop stop-color="#0fafff"/><stop offset="1" stop-color="#1b44b1"/></linearGradient><linearGradient id="g" x1="92" x2="76" y1="62" y2="32" gradientUnits="userSpaceOnUse"><stop stop-color="#0d1f69"/><stop offset="1" stop-color="#2052cb" stop-opacity="0"/></linearGradient><linearGradient id="h" x1="43" x2="62" y1="91" y2="65" gradientUnits="userSpaceOnUse"><stop stop-color="#163697"/><stop offset="1" stop-color="#2052cb" stop-opacity="0"/></linearGradient><linearGradient id="i" x1="9" x2="26" y1="39" y2="59" gradientUnits="userSpaceOnUse"><stop stop-color="#2052cb"/><stop offset="1" stop-color="#2764e7" stop-opacity="0"/></linearGradient><clipPath id="a"><path fill="#fff" d="M0 0h96v96H0z"/></clipPath><clipPath id="b"><path fill="#fff" d="M0 0h96v96H0z"/></clipPath><clipPath id="c"><path fill="#fff" d="M0 0h96v96H0z"/></clipPath></defs></svg>