<svg xmlns="http://www.w3.org/2000/svg" width="96" height="96" fill="none" viewBox="0 0 96 96"><g clip-path="url(#a)"><g clip-path="url(#b)"><path fill="url(#c)" d="M0 48c0-13.255 10.745-24 24-24s24 10.745 24 24v4a8 8 0 0 1-8 8 8 8 0 0 0-8 8v8c0 11.046-8.954 20-20 20-6.627 0-12-5.373-12-12z"/><path fill="url(#d)" d="M0 48c0-13.255 10.745-24 24-24s24 10.745 24 24v4a8 8 0 0 1-8 8 8 8 0 0 0-8 8v8c0 11.046-8.954 20-20 20-6.627 0-12-5.373-12-12z"/><path fill="url(#e)" d="M64 20C64 8.954 72.954 0 84 0c6.627 0 12 5.373 12 12v36c0 13.255-10.745 24-24 24S48 61.255 48 48v-4a8 8 0 0 1 8-8 8 8 0 0 0 8-8z"/><path fill="url(#f)" d="M64 20C64 8.954 72.954 0 84 0c6.627 0 12 5.373 12 12v36c0 13.255-10.745 24-24 24S48 61.255 48 48v-4a8 8 0 0 1 8-8 8 8 0 0 0 8-8z"/><path fill="url(#g)" d="M72 12v36c0 26.51-21.49 48-48 48H12c6.627 0 12-5.373 12-12V48C24 21.49 45.49 0 72 0h12c-6.627 0-12 5.373-12 12"/><path fill="url(#h)" d="m71.977.001-.62.004c-17.815.226-33.289 10.16-41.382 24.752 10.161 2.614 17.718 11.715 17.994 22.625l.016 1.238c.276 10.91 7.835 20.01 17.996 22.624a47.8 47.8 0 0 0 5.996-23.243v-36c0-6.627 5.373-12 12-12z"/><path fill="url(#i)" d="m71.977.001-.62.004c-17.815.226-33.289 10.16-41.382 24.752 10.161 2.614 17.718 11.715 17.994 22.625l.016 1.238c.276 10.91 7.835 20.01 17.996 22.624a47.8 47.8 0 0 0 5.996-23.243v-36c0-6.627 5.373-12 12-12z"/><path fill="url(#j)" fill-opacity=".5" d="M29.975 24.757a47.8 47.8 0 0 0-5.998 23.244v36c0 6.628-5.372 12-12 12h12c18.077 0 33.818-9.994 42.004-24.757C55.82 68.63 48.261 59.531 47.985 48.62l-.016-1.238c-.276-10.91-7.833-20.01-17.994-22.625"/></g></g><defs><radialGradient id="d" cx="0" cy="0" r="1" gradientTransform="matrix(0 86 -32.0334 0 4 10)" gradientUnits="userSpaceOnUse"><stop offset=".555" stop-color="#1b44b1" stop-opacity="0"/><stop offset="1" stop-color="#163697"/></radialGradient><radialGradient id="f" cx="0" cy="0" r="1" gradientTransform="matrix(0 -80 32.2579 0 96 80)" gradientUnits="userSpaceOnUse"><stop offset=".519" stop-color="#0078d4" stop-opacity="0"/><stop offset="1" stop-color="#004695"/></radialGradient><radialGradient id="h" cx="0" cy="0" r="1" gradientTransform="matrix(0 -75.775 57.4371 0 71.52 74.28)" gradientUnits="userSpaceOnUse"><stop offset=".86" stop-color="#6fe8f5" stop-opacity="0"/><stop offset="1" stop-color="#9ff2e4"/></radialGradient><radialGradient id="j" cx="0" cy="0" r="1" gradientTransform="matrix(0 77 -64.178 0 22 20)" gradientUnits="userSpaceOnUse"><stop offset=".756" stop-color="#0094f0" stop-opacity="0"/><stop offset="1" stop-color="#2052cb"/></radialGradient><linearGradient id="c" x1="15" x2="15" y1="94" y2="26.5" gradientUnits="userSpaceOnUse"><stop stop-color="#163697"/><stop offset=".376" stop-color="#2052cb"/><stop offset="1" stop-color="#0078d4"/></linearGradient><linearGradient id="e" x1="82" x2="82" y1="70.5" y2="0" gradientUnits="userSpaceOnUse"><stop stop-color="#0078d4"/><stop offset=".834" stop-color="#0057aa"/></linearGradient><linearGradient id="g" x1="71.5" x2="25.5" y1="0" y2="95" gradientUnits="userSpaceOnUse"><stop stop-color="#6fe8f5"/><stop offset=".428" stop-color="#29c3ff"/><stop offset="1" stop-color="#0078d4"/></linearGradient><linearGradient id="i" x1="42.585" x2="78.984" y1="58.827" y2="31.883" gradientUnits="userSpaceOnUse"><stop stop-color="#2764e7"/><stop offset="1" stop-color="#3bd5ff" stop-opacity="0"/></linearGradient><clipPath id="a"><path fill="#fff" d="M0 0h96v96H0z"/></clipPath><clipPath id="b"><path fill="#fff" d="M0 0h96v96H0z"/></clipPath></defs></svg>