<svg xmlns="http://www.w3.org/2000/svg" width="96" height="96" fill="none" viewBox="0 0 96 96"><g clip-path="url(#a)"><mask id="b" width="84" height="95" x="6" y="0" mask-type="alpha" maskUnits="userSpaceOnUse"><path fill="#2064ae" d="M46.016 1.134a4 4 0 0 1 3.969 0l38 21.714A4 4 0 0 1 90 26.321V53.68a4 4 0 0 1-2.015 3.473l-37.97 21.696A4 4 0 0 0 48 82.321v10.233c0 1.535-1.659 2.498-2.992 1.736L8.015 73.152A4 4 0 0 1 6 69.679V26.32a4 4 0 0 1 2.015-3.473z"/></mask><g mask="url(#b)"><path fill="url(#c)" d="m48 0 42 24v32L50.016 78.848A4 4 0 0 0 48 82.321v10.233c0 1.535-1.659 2.498-2.992 1.736L6 72V24z"/><g filter="url(#d)"><path fill="#000" fill-opacity=".24" d="m48 .4 42 24v13.679a4 4 0 0 1-2.015 3.473l-37.97 21.696A4 4 0 0 0 48 66.721v10.233c0 1.535-1.659 2.498-2.992 1.736L8.015 57.552A4 4 0 0 1 6 54.079V24.4z"/></g><g filter="url(#e)"><path fill="#000" fill-opacity=".32" d="m48 2 42 24v13.679a4 4 0 0 1-2.015 3.473l-37.97 21.696A4 4 0 0 0 48 68.321v10.233c0 1.535-1.659 2.498-2.992 1.736L8.015 59.152A4 4 0 0 1 6 55.679V26z"/></g><path fill="url(#f)" d="m48 0 42 24v13.679a4 4 0 0 1-2.015 3.473l-37.97 21.696A4 4 0 0 0 48 66.321v10.233c0 1.535-1.659 2.498-2.992 1.736L8.015 57.152A4 4 0 0 1 6 53.679V24z"/><path fill="url(#g)" d="m48 0 40.48 23.132a1 1 0 0 1 0 1.736l-38.464 21.98A4 4 0 0 0 48 50.321v10.233c0 1.535-1.659 2.498-2.992 1.736L8.015 41.152A4 4 0 0 1 6 37.679V24z"/></g></g><defs><linearGradient id="c" x1="52.873" x2="72.17" y1="49.938" y2="96" gradientUnits="userSpaceOnUse"><stop stop-color="#0078d4"/><stop offset="1" stop-color="#2064ae"/></linearGradient><linearGradient id="f" x1="38.953" x2="68.058" y1="26.528" y2="95.177" gradientUnits="userSpaceOnUse"><stop stop-color="#00b1f2"/><stop offset=".993" stop-color="#0095e6"/></linearGradient><linearGradient id="g" x1="28.513" x2="56.985" y1="5.965" y2="64" gradientUnits="userSpaceOnUse"><stop stop-color="#7cecff"/><stop offset="1" stop-color="#00ccf9"/></linearGradient><filter id="d" width="85.6" height="80.157" x="5.2" y="-.4" color-interpolation-filters="sRGB" filterUnits="userSpaceOnUse"><feFlood flood-opacity="0" result="BackgroundImageFix"/><feBlend in="SourceGraphic" in2="BackgroundImageFix" result="shape"/><feGaussianBlur result="effect1_foregroundBlur" stdDeviation=".4"/></filter><filter id="e" width="100" height="94.557" x="-2" y="-6" color-interpolation-filters="sRGB" filterUnits="userSpaceOnUse"><feFlood flood-opacity="0" result="BackgroundImageFix"/><feBlend in="SourceGraphic" in2="BackgroundImageFix" result="shape"/><feGaussianBlur result="effect1_foregroundBlur" stdDeviation="4"/></filter><clipPath id="a"><path fill="#fff" d="M0 0h96v96H0z"/></clipPath></defs></svg>