<svg width="109" height="71" viewBox="0 0 109 71" fill="none" xmlns="http://www.w3.org/2000/svg">
<path opacity="0.5" d="M4.96578 50.9886C4.96578 51.8946 5.08774 52.7135 5.33167 53.4453C5.61046 54.1423 5.99378 54.7347 6.48164 55.2225C7.00436 55.6756 7.64904 56.0415 8.41568 56.3202L7.52707 58.5679C5.61046 57.9755 4.21655 57.0695 3.34536 55.8498C2.47418 54.6301 2.03858 53.0097 2.03858 50.9886V21.2985H4.96578V31.7527H11.2906L10.0361 34.4708H4.96578V50.9886ZM15.6001 50.884C15.6001 51.8249 15.7395 52.6264 16.0183 53.2885C16.3319 53.9158 16.7501 54.4385 17.2728 54.8566C17.7955 55.24 18.4054 55.5362 19.1023 55.7453C19.8341 55.9195 20.6182 56.0066 21.4545 56.0066C22.7439 56.0066 24.0158 55.815 25.2703 55.4316C26.5248 55.0135 27.7968 54.4733 29.0861 53.8112L30.2361 56.0589C28.9467 56.8255 27.5354 57.4354 26.0021 57.8884C24.4688 58.3066 23.0401 58.5156 21.7159 58.5156C20.3917 58.5156 19.172 58.3937 18.0569 58.1497C16.9418 57.9058 15.9835 57.4876 15.182 56.8952C14.3805 56.3028 13.7532 55.5187 13.3002 54.543C12.882 53.5673 12.6729 52.3476 12.6729 50.884V40.1684C12.6729 38.1821 13.0911 36.5268 13.9274 35.2026C14.7638 33.8784 15.9138 32.8853 17.3774 32.2232C18.841 31.5611 20.4962 31.23 22.3431 31.23C24.2249 31.23 25.8453 31.5611 27.2044 32.2232C28.5983 32.8853 29.6611 33.861 30.3929 35.1504C31.1596 36.4397 31.5429 38.0601 31.5429 40.0116V46.8069L15.6001 47.6432V50.884ZM28.6157 39.6457C28.6157 38.426 28.3369 37.3806 27.7793 36.5094C27.2218 35.6034 26.4726 34.9064 25.5317 34.4186C24.5908 33.9307 23.5105 33.6868 22.2909 33.6868C20.9318 33.6868 19.747 33.9481 18.7364 34.4708C17.7258 34.9587 16.9418 35.6905 16.3842 36.6662C15.8615 37.642 15.6001 38.8268 15.6001 40.2207V44.7683L28.6157 44.1933V39.6457ZM50.4377 35.2549C49.5317 34.8367 48.5211 34.5231 47.406 34.314C46.3257 34.0701 45.2803 33.9307 44.2697 33.8958C42.6319 33.8958 41.3077 34.2269 40.2971 34.889C39.2865 35.5511 38.5547 36.4746 38.1017 37.6594C37.6487 38.8093 37.4048 40.1336 37.3699 41.632L37.3176 48.1659C37.3176 49.4901 37.4396 50.6401 37.6835 51.6158C37.9623 52.5567 38.3979 53.3234 38.9903 53.9158C39.5827 54.5082 40.332 54.9612 41.238 55.2748C42.144 55.5536 43.2243 55.7104 44.4788 55.7453C45.2455 55.7453 45.9947 55.7104 46.7265 55.6407C47.4931 55.571 48.1727 55.4839 48.7651 55.3794C49.3923 55.2748 49.8802 55.1877 50.2287 55.118C50.5771 55.0483 50.7339 55.0135 50.6991 55.0135L51.2741 57.627C50.1938 57.9058 49.0613 58.1149 47.8764 58.2543C46.6916 58.4285 45.5242 58.4982 44.3743 58.4634C42.388 58.4285 40.6456 58.08 39.1471 57.4179C37.6487 56.721 36.4813 55.6756 35.645 54.2817C34.8435 52.8529 34.4427 51.0234 34.4427 48.7932V41.2138C34.4427 39.2275 34.7912 37.4851 35.4881 35.9867C36.2199 34.4883 37.3002 33.3209 38.729 32.4845C40.1926 31.6482 42.0046 31.23 44.1652 31.23C45.35 31.23 46.5348 31.3868 47.7196 31.7004C48.9393 32.0141 50.0893 32.4148 51.1695 32.9027L50.4377 35.2549ZM57.3714 33.4777C58.0336 33.0247 58.7654 32.6413 59.5668 32.3277C60.3683 31.9792 61.1873 31.7179 62.0236 31.5436C62.8948 31.3345 63.766 31.23 64.6372 31.23C65.7871 31.23 66.8326 31.352 67.7734 31.5959C68.7492 31.8398 69.6029 32.2057 70.3347 32.6936C71.0665 33.1466 71.6764 33.7216 72.1642 34.4186C72.6869 35.0807 73.0703 35.8647 73.3142 36.7708C73.593 37.6768 73.7324 38.6874 73.7324 39.8025V57.8884H70.8052V39.9593C70.8052 38.7745 70.6135 37.7988 70.2302 37.0321C69.8469 36.2306 69.3242 35.6034 68.6621 35.1504C68.0348 34.6625 67.3204 34.3314 66.5189 34.1572C65.7174 33.9481 64.8985 33.8436 64.0622 33.8436C63.2607 33.8436 62.4766 33.9133 61.71 34.0527C60.9782 34.192 60.2464 34.4011 59.5146 34.6799C58.8176 34.9238 58.1032 35.2549 57.3714 35.6731V57.8884H54.392V21.2985H57.3714V33.4777Z" fill="#FEF9F3"/>
<path opacity="0.7" d="M100.738 57.0259L97.3428 53.423C96.5997 54.0797 95.7703 54.6758 94.8544 55.2115C93.9559 55.7299 92.9968 56.1706 91.9773 56.5335C90.975 56.8963 89.9296 57.1728 88.8409 57.3629C87.7523 57.553 86.655 57.648 85.5491 57.648C83.6828 57.648 81.998 57.4061 80.4946 56.9223C78.9912 56.4384 77.7039 55.7558 76.6325 54.8746C75.5784 53.976 74.7576 52.9046 74.1701 51.6605C73.5998 50.4163 73.3147 49.0339 73.3147 47.5132C73.3147 43.245 76.1487 39.6508 81.8166 36.7304C79.2072 33.499 77.9026 30.6305 77.9026 28.1249C77.9026 26.8289 78.1532 25.6366 78.6543 24.5479C79.1727 23.4593 79.8898 22.5261 80.8057 21.7485C81.7215 20.9536 82.8102 20.3315 84.0716 19.8823C85.3503 19.433 86.7414 19.2083 88.2448 19.2083C89.679 19.2083 90.975 19.4071 92.1328 19.8045C93.3078 20.2019 94.3101 20.7549 95.1395 21.4634C95.969 22.1719 96.6084 23.0186 97.0576 24.0036C97.5069 24.9713 97.7316 26.0254 97.7316 27.1658C97.7316 28.2891 97.5847 29.3086 97.2909 30.2244C97.0144 31.123 96.5565 31.9697 95.9171 32.7646C95.2951 33.5595 94.4656 34.3198 93.4288 35.0456C92.4093 35.7714 91.1565 36.4971 89.6704 37.2229C91.0355 38.6917 92.4093 40.1519 93.7917 41.6034C95.1914 43.0549 96.6084 44.5151 98.0426 45.9839C98.4055 45.431 98.7338 44.8089 99.0276 44.1177C99.3386 43.4265 99.5978 42.7007 99.8052 41.9404C100.03 41.18 100.203 40.3938 100.324 39.5816C100.445 38.7695 100.505 37.9746 100.505 37.197H105.767C105.767 41.949 104.263 46.1049 101.257 49.6646C102.034 50.494 103.011 51.5136 104.186 52.7232C105.378 53.9328 106.778 55.367 108.385 57.0259H100.738ZM92.3142 27.6324C92.3142 27.0622 92.2019 26.5265 91.9773 26.0254C91.7699 25.5242 91.4848 25.0922 91.1219 24.7293C90.759 24.3492 90.3357 24.0554 89.8518 23.8481C89.368 23.6234 88.8496 23.5111 88.2966 23.5111C87.5708 23.5111 86.9056 23.6234 86.3007 23.8481C85.7132 24.0554 85.2035 24.3665 84.7715 24.7812C84.3567 25.1786 84.0284 25.6538 83.7865 26.2068C83.5618 26.7598 83.4495 27.3732 83.4495 28.0471C83.4495 29.6369 84.5814 31.6932 86.8451 34.2161C90.4912 32.3499 92.3142 30.1553 92.3142 27.6324ZM94.2064 50.0534C92.1846 47.9625 89.0224 44.5929 84.7196 39.9445C82.8188 40.9295 81.445 41.9836 80.5983 43.1068C79.7689 44.23 79.3541 45.5433 79.3541 47.0467C79.3541 47.9625 79.5183 48.7919 79.8466 49.535C80.1922 50.2608 80.6588 50.8828 81.2463 51.4012C81.8338 51.9197 82.525 52.3171 83.3199 52.5936C84.1321 52.8701 85.0047 53.0083 85.9379 53.0083C89.1865 53.0083 91.9427 52.0233 94.2064 50.0534Z" fill="#FEF9F3"/>
</svg>
