<svg width="115" height="74" viewBox="0 0 115 74" fill="none" xmlns="http://www.w3.org/2000/svg">
<path d="M5.20538 51.9601C5.20538 52.9099 5.33324 53.7683 5.58894 54.5354C5.88117 55.266 6.28299 55.887 6.7944 56.3984C7.34233 56.8733 8.01812 57.2568 8.82176 57.5491L7.89027 59.9052C5.88117 59.2842 4.42001 58.3344 3.50678 57.0559C2.59356 55.7774 2.13695 54.0788 2.13695 51.9601V20.8374H5.20538V31.7961H11.8354L10.5204 34.6454H5.20538V51.9601ZM16.3529 51.8505C16.3529 52.8368 16.499 53.677 16.7912 54.371C17.12 55.0286 17.5583 55.5765 18.1063 56.0148C18.6542 56.4167 19.2935 56.7272 20.024 56.9463C20.7911 57.129 21.613 57.2203 22.4897 57.2203C23.8413 57.2203 25.1746 57.0194 26.4897 56.6176C27.8047 56.1792 29.138 55.613 30.4896 54.919L31.695 57.2751C30.3435 58.0787 28.8641 58.718 27.2568 59.1929C25.6495 59.6312 24.1518 59.8504 22.7637 59.8504C21.3756 59.8504 20.0971 59.7225 18.9282 59.4668C17.7592 59.2111 16.7547 58.7728 15.9145 58.1518C15.0744 57.5308 14.4168 56.7089 13.942 55.6861C13.5036 54.6633 13.2844 53.3848 13.2844 51.8505V40.6179C13.2844 38.5357 13.7228 36.8006 14.5995 35.4125C15.4762 34.0244 16.6816 32.9833 18.2158 32.2893C19.7501 31.5952 21.4852 31.2482 23.4212 31.2482C25.3938 31.2482 27.0924 31.5952 28.517 32.2893C29.9782 32.9833 31.0923 34.0061 31.8594 35.3577C32.6631 36.7093 33.0649 38.4079 33.0649 40.4535V47.5766L16.3529 48.4533V51.8505ZM29.9965 40.0699C29.9965 38.7914 29.7042 37.6956 29.1198 36.7823C28.5353 35.8326 27.7499 35.102 26.7636 34.5906C25.7774 34.0792 24.645 33.8235 23.3664 33.8235C21.9418 33.8235 20.6998 34.0974 19.6405 34.6454C18.5811 35.1568 17.7592 35.9239 17.1748 36.9467C16.6268 37.9695 16.3529 39.2115 16.3529 40.6727V45.4397L29.9965 44.837V40.0699ZM52.8715 35.4673C51.9217 35.0289 50.8624 34.7002 49.6934 34.481C48.561 34.2253 47.4652 34.0792 46.4058 34.0426C44.689 34.0426 43.3009 34.3897 42.2415 35.0837C41.1822 35.7778 40.4151 36.7458 39.9402 37.9878C39.4653 39.1932 39.2096 40.5813 39.1731 42.1521L39.1183 49.0013C39.1183 50.3894 39.2461 51.5948 39.5018 52.6176C39.7941 53.6039 40.2507 54.4076 40.8717 55.0286C41.4927 55.6496 42.278 56.1244 43.2278 56.4532C44.1776 56.7454 45.31 56.9098 46.625 56.9463C47.4286 56.9463 48.214 56.9098 48.9811 56.8368C49.7848 56.7637 50.4971 56.6724 51.1181 56.5628C51.7756 56.4532 52.287 56.3619 52.6523 56.2888C53.0176 56.2158 53.182 56.1792 53.1454 56.1792L53.7482 58.9189C52.6158 59.2111 51.4286 59.4303 50.1866 59.5764C48.9446 59.7591 47.7209 59.8321 46.5154 59.7956C44.4333 59.7591 42.6068 59.3938 41.0361 58.6997C39.4653 57.9691 38.2416 56.8733 37.3649 55.4121C36.5247 53.9144 36.1046 51.9967 36.1046 49.6588V41.7137C36.1046 39.6316 36.4699 37.8051 37.2005 36.2344C37.9676 34.6636 39.1 33.4399 40.5977 32.5632C42.1319 31.6865 44.0314 31.2482 46.2962 31.2482C47.5382 31.2482 48.7802 31.4126 50.0222 31.7413C51.3007 32.0701 52.5062 32.4902 53.6386 33.0016L52.8715 35.4673ZM60.1397 33.6043C60.8338 33.1294 61.6009 32.7276 62.4411 32.3988C63.2812 32.0336 64.1397 31.7596 65.0164 31.5769C65.9296 31.3578 66.8428 31.2482 67.756 31.2482C68.9615 31.2482 70.0574 31.376 71.0436 31.6317C72.0665 31.8874 72.9614 32.271 73.7285 32.7824C74.4956 33.2573 75.1349 33.86 75.6463 34.5906C76.1942 35.2846 76.596 36.1065 76.8518 37.0563C77.144 38.006 77.2901 39.0654 77.2901 40.2343V59.1929H74.2217V40.3987C74.2217 39.1567 74.0208 38.1339 73.6189 37.3303C73.2171 36.4901 72.6692 35.8326 71.9751 35.3577C71.3176 34.8463 70.5688 34.4993 69.7286 34.3166C68.8884 34.0974 68.03 33.9879 67.1533 33.9879C66.3131 33.9879 65.4912 34.0609 64.6876 34.207C63.9205 34.3531 63.1534 34.5723 62.3863 34.8646C61.6557 35.1203 60.9068 35.4673 60.1397 35.9056V59.1929H57.0165V20.8374H60.1397V33.6043Z" fill="white"/>
<path d="M105.642 60.0272L102.083 56.2504C101.304 56.9387 100.435 57.5637 99.4747 58.1252C98.5327 58.6686 97.5274 59.1305 96.4587 59.5109C95.4081 59.8913 94.3122 60.1811 93.171 60.3804C92.0298 60.5796 90.8796 60.6793 89.7203 60.6793C87.764 60.6793 85.9979 60.4257 84.422 59.9185C82.8461 59.4113 81.4966 58.6958 80.3735 57.772C79.2686 56.8301 78.4081 55.707 77.7923 54.4028C77.1945 53.0986 76.8956 51.6495 76.8956 50.0554C76.8956 45.5813 79.8663 41.8136 85.8077 38.7523C83.0725 35.365 81.7049 32.3581 81.7049 29.7316C81.7049 28.3731 81.9675 27.1232 82.4928 25.982C83.0363 24.8408 83.788 23.8627 84.748 23.0476C85.7081 22.2143 86.8492 21.5622 88.1716 21.0913C89.512 20.6203 90.9702 20.3848 92.5461 20.3848C94.0495 20.3848 95.4081 20.5931 96.6217 21.0097C97.8535 21.4264 98.9041 22.006 99.7735 22.7487C100.643 23.4913 101.313 24.3789 101.784 25.4114C102.255 26.4258 102.491 27.5308 102.491 28.7263C102.491 29.9037 102.337 30.9724 102.029 31.9324C101.739 32.8744 101.259 33.762 100.589 34.5952C99.9366 35.4284 99.0671 36.2255 97.9803 36.9862C96.9115 37.747 95.5983 38.5078 94.0405 39.2686C95.4715 40.8083 96.9115 42.3389 98.3607 43.8605C99.8279 45.382 101.313 46.9127 102.817 48.4524C103.197 47.8727 103.541 47.2206 103.849 46.4961C104.175 45.7715 104.447 45.0107 104.664 44.2137C104.9 43.4167 105.081 42.5925 105.208 41.7411C105.335 40.8898 105.398 40.0565 105.398 39.2414H110.914C110.914 44.2228 109.338 48.5792 106.186 52.3106C107.001 53.1801 108.024 54.2488 109.256 55.5168C110.506 56.7848 111.973 58.2882 113.658 60.0272H105.642ZM96.8119 29.2154C96.8119 28.6176 96.6942 28.0561 96.4587 27.5308C96.2413 27.0055 95.9424 26.5526 95.562 26.1722C95.1817 25.7737 94.7379 25.4658 94.2307 25.2484C93.7235 25.0129 93.1801 24.8952 92.6004 24.8952C91.8396 24.8952 91.1422 25.0129 90.5083 25.2484C89.8924 25.4658 89.358 25.7918 88.9052 26.2266C88.4704 26.6432 88.1263 27.1413 87.8727 27.721C87.6372 28.3006 87.5195 28.9436 87.5195 29.6501C87.5195 31.3166 88.7059 33.4721 91.0788 36.1168C94.9009 34.1605 96.8119 31.86 96.8119 29.2154ZM98.7954 52.7182C96.6761 50.5264 93.3612 46.9942 88.8508 42.1215C86.8583 43.154 85.4182 44.259 84.5307 45.4364C83.6612 46.6138 83.2265 47.9905 83.2265 49.5664C83.2265 50.5264 83.3985 51.3959 83.7427 52.1748C84.105 52.9356 84.5941 53.5877 85.2099 54.1311C85.8258 54.6745 86.5504 55.0911 87.3836 55.3809C88.235 55.6708 89.1497 55.8157 90.1279 55.8157C93.5333 55.8157 96.4225 54.7832 98.7954 52.7182Z" fill="white"/>
</svg>
