<svg width="4289" height="1758" viewBox="0 0 4289 1758" fill="none" xmlns="http://www.w3.org/2000/svg">
<g clip-path="url(#clip0_751_2660)">
<path d="M1656.56 1363L1400.12 595.135H1633.12L1795.77 1195.95H1819.22L1981.88 595.135H2206.08L1948.18 1363H1656.56ZM2392.58 1363V593.67H2603.59V1363H2392.58ZM2499.55 477.904C2458.52 477.904 2426.77 469.6 2404.3 452.992C2382.81 435.407 2372.06 410.007 2372.06 376.792C2372.06 342.599 2382.81 316.711 2404.3 299.126C2426.77 281.542 2458.52 272.749 2499.55 272.749C2541.56 272.749 2573.31 281.542 2594.8 299.126C2617.27 316.711 2628.51 342.599 2628.51 376.792C2628.51 409.03 2617.27 433.942 2594.8 451.527C2573.31 469.112 2541.56 477.904 2499.55 477.904ZM3158.02 1380.58C3072.05 1380.58 3008.55 1358.12 2967.52 1313.18C2927.46 1267.26 2907.43 1194.48 2907.43 1094.83V759.259H2796.06L2799 593.67H2876.66C2906.95 593.67 2929.41 589.274 2944.07 580.481C2958.72 571.689 2967.52 555.57 2970.45 532.123L2989.5 422.219H3109.66V593.67H3304.56V765.12H3109.66V1086.04C3109.66 1121.21 3117.96 1146.61 3134.57 1162.24C3151.18 1177.87 3176.58 1185.69 3210.77 1185.69C3229.33 1185.69 3246.92 1183.73 3263.52 1179.83C3281.11 1175.92 3296.25 1169.57 3308.95 1160.78V1357.14C3278.67 1366.91 3250.82 1373.26 3225.42 1376.19C3200.02 1379.12 3177.55 1380.58 3158.02 1380.58ZM3708.21 1383.52C3665.23 1383.52 3627.13 1375.21 3593.91 1358.6C3560.7 1341.02 3534.81 1316.11 3516.25 1283.87C3497.69 1251.63 3488.4 1211.58 3488.4 1163.71C3488.4 1121.7 3496.22 1086.53 3511.85 1058.2C3528.46 1029.87 3552.39 1006.91 3583.65 989.325C3614.92 971.741 3653.5 957.087 3699.42 945.364C3745.34 933.64 3797.6 923.383 3856.22 914.59C3887.48 909.706 3912.88 905.31 3932.42 901.402C3952.93 896.517 3968.08 889.19 3977.84 879.421C3987.61 868.675 3992.5 853.532 3992.5 833.994C3992.5 806.64 3982.73 783.194 3963.19 763.655C3943.65 744.117 3912.88 734.347 3870.87 734.347C3842.54 734.347 3816.16 739.232 3791.74 749.001C3768.29 758.77 3747.78 773.424 3730.19 792.963C3713.59 812.501 3701.37 837.413 3693.56 867.698L3507.45 810.548C3519.18 770.494 3535.79 735.813 3557.28 706.505C3579.75 677.197 3606.61 652.774 3637.87 633.235C3669.14 612.72 3704.79 597.577 3744.85 587.808C3784.9 578.039 3828.37 573.154 3875.27 573.154C3950.49 573.154 4011.55 585.366 4058.44 609.789C4106.31 633.235 4141.97 670.359 4165.41 721.159C4188.86 770.982 4200.58 835.459 4200.58 914.59V1046.48C4200.58 1080.67 4201.07 1115.35 4202.05 1150.52C4204 1185.69 4205.96 1221.35 4207.91 1257.49C4210.84 1292.66 4213.77 1327.83 4216.7 1363H4030.6C4026.69 1338.58 4022.78 1310.73 4018.88 1279.47C4015.95 1247.23 4013.5 1215 4011.55 1182.76H3985.17C3971.49 1219.88 3951.96 1253.58 3926.56 1283.87C3901.16 1314.15 3869.89 1338.58 3832.77 1357.14C3796.62 1374.72 3755.11 1383.52 3708.21 1383.52ZM3797.6 1231.11C3816.16 1231.11 3834.73 1227.7 3853.29 1220.86C3872.83 1214.02 3891.39 1204.74 3908.97 1193.01C3927.53 1180.31 3944.14 1164.68 3958.79 1146.12C3974.43 1127.56 3987.13 1106.56 3996.89 1083.11L3993.96 960.018L4027.67 967.344C4010.08 980.045 3989.57 990.302 3966.12 998.118C3942.68 1004.96 3918.25 1010.33 3892.85 1014.24C3868.43 1018.14 3844.01 1022.54 3819.58 1027.43C3795.16 1032.31 3773.18 1038.66 3753.64 1046.48C3735.08 1054.29 3719.94 1065.04 3708.21 1078.71C3697.47 1091.41 3692.09 1109.49 3692.09 1132.93C3692.09 1163.22 3701.86 1187.15 3721.4 1204.74C3740.94 1222.32 3766.34 1231.11 3797.6 1231.11Z" fill="white"/>
<path d="M42.2605 973.829C44.7029 972.482 46.71 972.369 49.4906 972.15C50.6168 972.056 51.7429 971.963 52.9032 971.866C54.158 971.772 55.4129 971.678 56.6678 971.583C57.997 971.477 59.3261 971.369 60.6551 971.261C64.3146 970.965 67.9749 970.681 71.6355 970.399C75.5807 970.093 79.5251 969.776 83.4695 969.46C91.2015 968.843 98.9343 968.237 106.667 967.633C115.673 966.93 124.679 966.217 133.684 965.503C149.756 964.229 165.83 962.964 181.904 961.704C197.496 960.482 213.088 959.254 228.68 958.02C229.639 957.944 230.598 957.868 231.587 957.79C233.519 957.637 235.452 957.484 237.384 957.331C238.338 957.255 239.291 957.18 240.273 957.102C241.7 956.989 241.7 956.989 243.155 956.874C258.015 955.697 272.874 954.526 287.734 953.355C293.117 952.931 298.5 952.506 303.883 952.081C312.428 951.406 320.973 950.733 329.518 950.064C333.421 949.759 337.325 949.453 341.228 949.143C344.806 948.86 348.384 948.58 351.962 948.302C353.252 948.201 354.542 948.099 355.832 947.996C362.215 947.487 368.557 947.066 374.962 947.062C377.569 947.05 380.164 946.916 382.767 946.78C413.296 945.242 444.344 950.523 472.664 961.966C473.32 962.23 473.976 962.494 474.652 962.766C504.416 975.022 530.351 996.856 550.072 1022.05C550.588 1022.7 551.104 1023.35 551.635 1024.02C566.36 1042.82 577.909 1066.74 582.476 1090.21C582.957 1092.11 583.443 1094.02 583.934 1095.92C585.076 1100.68 585.958 1105.45 586.72 1110.29C586.818 1110.9 586.915 1111.52 587.016 1112.16C587.346 1114.34 587.652 1116.52 587.951 1118.71C588.09 1119.72 588.229 1120.74 588.373 1121.79C589.745 1132.32 590.564 1142.88 591.351 1153.48C591.609 1156.95 591.871 1160.42 592.136 1163.88C592.192 1164.66 592.248 1165.43 592.305 1166.22C592.59 1169.95 592.975 1173.62 593.562 1177.31C594.376 1182.78 594.832 1188.25 595.251 1193.75C595.335 1194.84 595.42 1195.92 595.508 1197.04C595.738 1199.98 595.966 1202.92 596.192 1205.86C596.431 1208.96 596.674 1212.05 596.917 1215.15C597.586 1223.68 598.248 1232.2 598.909 1240.73C599.517 1248.55 600.125 1256.37 600.739 1264.19C600.98 1267.27 601.22 1270.34 601.456 1273.41C601.721 1276.84 601.989 1280.27 602.258 1283.7C602.334 1284.7 602.41 1285.71 602.489 1286.74C602.825 1290.98 603.216 1295.18 603.886 1299.39C604.992 1306.57 605.436 1313.82 605.999 1321.06C606.13 1322.72 606.262 1324.38 606.395 1326.05C606.751 1330.54 607.103 1335.03 607.455 1339.52C607.824 1344.22 608.196 1348.92 608.568 1353.62C609.272 1362.52 609.972 1371.41 610.67 1380.3C611.467 1390.43 612.266 1400.56 613.066 1410.69C614.711 1431.52 616.351 1452.34 617.989 1473.17C609.496 1476.98 598.981 1475.78 589.88 1475.4C588.774 1475.36 587.668 1475.31 586.529 1475.27C578.459 1474.85 570.591 1473.87 562.643 1472.42C561.478 1472.21 560.313 1472 559.112 1471.78C514.324 1463.15 473.517 1434.19 447.8 1396.93C445.592 1393.63 443.495 1390.27 441.431 1386.87C441.086 1386.32 440.741 1385.77 440.386 1385.19C428.589 1366.05 421.646 1343.97 418.274 1321.84C418.129 1320.92 417.985 1320 417.836 1319.05C416.006 1306.39 414.842 1293.54 415.332 1280.76C415.455 1276.29 415.267 1271.84 415.102 1267.37C415.007 1264.69 414.949 1262.02 414.924 1259.34C414.864 1253.69 414.759 1248.05 414.546 1242.41C414.512 1241.44 414.478 1240.46 414.442 1239.46C412.989 1213.5 404.008 1185.09 384.219 1167.37C382.787 1166.14 381.346 1164.92 379.898 1163.7C379.141 1163.06 378.384 1162.43 377.605 1161.77C370.264 1155.66 362.954 1150.25 353.668 1147.58C352.618 1147.26 351.568 1146.94 350.486 1146.61C327.425 1139.79 304.313 1139.72 280.72 1143.72C278.822 1144.02 276.924 1144.32 275.025 1144.61C270.026 1145.39 265.029 1146.18 260.036 1147C234.324 1151.16 209.805 1152.95 184.001 1148.18C183.416 1148.07 182.831 1147.97 182.229 1147.86C172.289 1146.04 163.064 1142.95 153.67 1139.26C151.86 1138.57 150.038 1137.95 148.202 1137.34C143.405 1135.61 139.053 1133.07 134.631 1130.56C133.732 1130.05 132.834 1129.54 131.909 1129.01C129.359 1127.56 126.817 1126.1 124.276 1124.63C123.694 1124.29 123.111 1123.96 122.511 1123.62C85.5731 1102.38 59.3301 1062.14 47.7875 1021.86C36.3595 979.489 36.3595 979.489 42.2605 973.829Z" fill="white"/>
<path d="M1023.52 964C1021.08 965.347 1019.07 965.459 1016.29 965.679C1015.16 965.772 1014.04 965.866 1012.88 965.962C1011.62 966.057 1010.37 966.151 1009.11 966.245C1007.78 966.352 1006.46 966.46 1005.13 966.568C1001.47 966.864 997.806 967.148 994.146 967.43C990.201 967.736 986.256 968.053 982.312 968.368C974.58 968.985 966.847 969.592 959.114 970.196C950.108 970.899 941.103 971.612 932.097 972.326C916.025 973.6 899.951 974.865 883.878 976.125C868.285 977.347 852.693 978.574 837.102 979.809C836.142 979.885 835.183 979.961 834.195 980.039C832.262 980.192 830.33 980.345 828.397 980.498C827.444 980.574 826.49 980.649 825.508 980.727C824.082 980.84 824.082 980.84 822.626 980.955C807.767 982.132 792.907 983.303 778.047 984.474C772.664 984.898 767.281 985.323 761.898 985.748C753.353 986.423 744.809 987.096 736.264 987.764C732.36 988.07 728.456 988.376 724.553 988.685C720.975 988.969 717.398 989.249 713.82 989.527C712.529 989.628 711.239 989.73 709.949 989.833C703.566 990.341 697.224 990.763 690.819 990.767C688.212 990.779 685.617 990.913 683.014 991.049C652.485 992.587 621.437 987.306 593.118 975.863C592.462 975.599 591.806 975.335 591.13 975.063C561.365 962.807 535.43 940.973 515.71 915.777C515.194 915.127 514.678 914.476 514.146 913.805C499.421 895.012 487.872 871.086 483.305 847.621C482.824 845.716 482.338 843.813 481.848 841.91C480.706 837.147 479.824 832.379 479.061 827.544C478.963 826.926 478.866 826.308 478.765 825.671C478.435 823.49 478.129 821.307 477.831 819.122C477.691 818.105 477.552 817.089 477.409 816.041C476.036 805.505 475.217 794.944 474.43 784.35C474.172 780.881 473.91 777.412 473.645 773.944C473.589 773.173 473.534 772.401 473.476 771.606C473.191 767.88 472.806 764.209 472.219 760.518C471.405 755.053 470.949 749.583 470.531 744.074C470.446 742.992 470.361 741.909 470.273 740.793C470.043 737.851 469.816 734.91 469.589 731.968C469.35 728.871 469.107 725.775 468.864 722.679C468.196 714.153 467.534 705.627 466.872 697.101C466.265 689.279 465.656 681.458 465.042 673.637C464.801 670.563 464.561 667.49 464.325 664.416C464.061 660.986 463.792 657.557 463.523 654.127C463.447 653.125 463.371 652.123 463.293 651.09C462.956 646.844 462.566 642.646 461.896 638.439C460.789 631.262 460.345 624.008 459.783 616.773C459.651 615.11 459.519 613.446 459.387 611.783C459.03 607.293 458.678 602.802 458.326 598.311C457.957 593.609 457.585 588.907 457.213 584.205C456.51 575.312 455.81 566.418 455.111 557.525C454.315 547.395 453.515 537.266 452.715 527.137C451.07 506.311 449.43 485.484 447.793 464.657C456.286 460.851 466.8 462.045 475.902 462.427C477.007 462.472 478.113 462.517 479.252 462.563C487.322 462.977 495.19 463.959 503.138 465.41C504.303 465.62 505.468 465.829 506.669 466.045C551.457 474.679 592.265 503.644 617.981 540.899C620.189 544.2 622.286 547.562 624.351 550.954C624.695 551.509 625.04 552.063 625.395 552.635C637.192 571.778 644.135 593.859 647.508 615.986C647.652 616.908 647.796 617.83 647.945 618.779C649.776 631.438 650.939 644.285 650.45 657.073C650.326 661.542 650.514 665.989 650.68 670.455C650.774 673.135 650.832 675.809 650.857 678.49C650.918 684.136 651.022 689.776 651.235 695.418C651.269 696.392 651.304 697.366 651.339 698.369C652.792 724.327 661.773 752.741 681.562 770.458C682.994 771.69 684.435 772.913 685.883 774.126C686.64 774.764 687.397 775.403 688.176 776.061C695.517 782.169 702.828 787.581 712.113 790.249C713.163 790.568 714.213 790.887 715.296 791.215C738.356 798.042 761.468 798.105 785.062 794.107C786.959 793.807 788.858 793.511 790.756 793.215C795.755 792.436 800.752 791.646 805.745 790.834C831.458 786.671 855.976 784.879 881.78 789.649C882.365 789.754 882.95 789.859 883.553 789.967C893.492 791.786 902.717 794.876 912.112 798.567C913.921 799.258 915.743 799.874 917.58 800.487C922.376 802.215 926.728 804.761 931.151 807.272C932.049 807.781 932.947 808.29 933.873 808.814C936.422 810.267 938.965 811.732 941.505 813.202C942.087 813.534 942.67 813.866 943.27 814.208C980.208 835.447 1006.45 875.691 1017.99 915.972C1029.42 958.34 1029.42 958.34 1023.52 964Z" fill="white"/>
<path opacity="0.1" d="M415.5 1290.39C424 1169.89 359.065 1133.88 311 1140.89C454.5 1119.96 536.242 1218 566.5 1265.39C593 1306.89 610.5 1413.39 610.5 1469.89C581.5 1485.89 404.869 1441.1 415.5 1290.39Z" fill="#707CBF"/>
<path opacity="0.1" d="M650 646.562C641.5 767.062 706.435 803.073 754.5 796.062C611 816.994 529.258 718.949 499 671.563C472.5 630.062 455 523.563 455 467.063C484 451.062 660.631 495.853 650 646.562Z" fill="#707CBF"/>
</g>
<defs>
<clipPath id="clip0_751_2660">
<rect width="4289" height="1758" fill="white"/>
</clipPath>
</defs>
</svg>
