<svg width="469" height="483" viewBox="0 0 469 483" fill="none" xmlns="http://www.w3.org/2000/svg">
<path d="M18.5632 243.273C19.636 242.681 20.5176 242.632 21.739 242.535C22.2337 242.494 22.7284 242.453 23.238 242.411C23.7892 242.369 24.3404 242.328 24.8916 242.286C25.4755 242.239 26.0593 242.192 26.6431 242.145C28.2506 242.015 29.8584 241.89 31.4663 241.766C33.1993 241.632 34.9318 241.492 36.6645 241.354C40.0608 241.083 43.4574 240.816 46.8542 240.551C50.8102 240.242 54.7658 239.929 58.7214 239.615C65.7814 239.056 72.8417 238.5 79.9022 237.947C86.7513 237.41 93.6001 236.871 100.449 236.328C100.87 236.295 101.292 236.262 101.726 236.227C102.575 236.16 103.423 236.093 104.272 236.026C104.691 235.993 105.11 235.959 105.541 235.925C106.168 235.876 106.168 235.876 106.807 235.825C113.334 235.308 119.862 234.794 126.389 234.279C128.753 234.093 131.118 233.906 133.483 233.72C137.236 233.423 140.989 233.128 144.743 232.834C146.457 232.7 148.172 232.565 149.887 232.429C151.458 232.305 153.03 232.182 154.601 232.06C155.168 232.015 155.735 231.971 156.301 231.925C159.105 231.702 161.891 231.517 164.704 231.515C165.849 231.51 166.989 231.451 168.133 231.391C181.543 230.715 195.181 233.035 207.62 238.062C207.908 238.178 208.197 238.294 208.493 238.413C221.568 243.797 232.96 253.387 241.622 264.455C241.849 264.741 242.075 265.026 242.309 265.321C248.777 273.576 253.85 284.085 255.856 294.393C256.067 295.229 256.281 296.066 256.496 296.901C256.998 298.994 257.385 301.088 257.72 303.212C257.763 303.483 257.806 303.755 257.85 304.034C257.995 304.992 258.13 305.951 258.261 306.911C258.322 307.358 258.383 307.804 258.446 308.264C259.049 312.893 259.409 317.531 259.754 322.185C259.868 323.709 259.983 325.232 260.099 326.756C260.124 327.095 260.148 327.433 260.173 327.783C260.299 329.419 260.468 331.032 260.726 332.653C261.083 335.054 261.283 337.457 261.467 339.876C261.504 340.352 261.542 340.828 261.58 341.318C261.681 342.61 261.781 343.902 261.881 345.194C261.986 346.554 262.093 347.914 262.199 349.274C262.493 353.019 262.784 356.764 263.074 360.51C263.341 363.945 263.608 367.381 263.878 370.816C263.984 372.166 264.089 373.516 264.193 374.866C264.309 376.373 264.427 377.879 264.545 379.386C264.579 379.826 264.612 380.266 264.647 380.72C264.794 382.585 264.966 384.429 265.26 386.277C265.746 389.43 265.941 392.616 266.188 395.794C266.246 396.525 266.304 397.255 266.362 397.986C266.519 399.958 266.674 401.931 266.828 403.903C266.99 405.969 267.154 408.034 267.317 410.1C267.626 414.006 267.933 417.913 268.24 421.819C268.59 426.269 268.941 430.718 269.293 435.167C270.015 444.315 270.736 453.463 271.455 462.612C267.724 464.284 263.106 463.759 259.108 463.591C258.622 463.572 258.137 463.552 257.636 463.531C254.091 463.35 250.635 462.918 247.144 462.281C246.632 462.189 246.121 462.097 245.593 462.002C225.92 458.21 207.995 445.487 196.699 429.122C195.729 427.672 194.808 426.195 193.901 424.705C193.749 424.462 193.598 424.218 193.442 423.967C188.26 415.558 185.211 405.859 183.729 396.14C183.666 395.735 183.602 395.33 183.537 394.913C182.733 389.352 182.222 383.709 182.437 378.092C182.491 376.129 182.409 374.176 182.336 372.214C182.294 371.037 182.269 369.862 182.258 368.684C182.231 366.204 182.185 363.727 182.092 361.249C182.077 360.821 182.062 360.393 182.046 359.953C181.408 348.55 177.463 336.069 168.771 328.287C168.141 327.746 167.509 327.209 166.872 326.676C166.54 326.395 166.208 326.115 165.865 325.826C162.641 323.143 159.429 320.765 155.351 319.594C154.89 319.454 154.428 319.314 153.953 319.169C143.823 316.171 133.671 316.143 123.308 317.899C122.474 318.031 121.64 318.161 120.806 318.291C118.611 318.633 116.416 318.98 114.222 319.337C102.928 321.166 92.1581 321.952 80.8237 319.857C80.5667 319.811 80.3097 319.765 80.0449 319.718C75.6789 318.919 71.6267 317.561 67.5003 315.94C66.7055 315.636 65.9053 315.366 65.0984 315.096C62.9915 314.337 61.0798 313.219 59.1373 312.116C58.7427 311.893 58.3482 311.669 57.9416 311.439C56.8217 310.801 55.705 310.157 54.5891 309.511C54.3332 309.366 54.0773 309.22 53.8137 309.07C37.5885 299.74 26.0611 282.063 20.9909 264.369C15.9711 245.759 15.9711 245.759 18.5632 243.273Z" fill="white"/>
<path d="M449.587 238.955C448.514 239.547 447.633 239.596 446.411 239.692C445.917 239.733 445.422 239.775 444.912 239.817C444.361 239.858 443.81 239.9 443.259 239.941C442.675 239.988 442.091 240.035 441.507 240.083C439.9 240.213 438.292 240.338 436.684 240.461C434.951 240.596 433.219 240.735 431.486 240.874C428.09 241.145 424.693 241.411 421.296 241.676C417.34 241.985 413.385 242.299 409.429 242.612C402.369 243.172 395.309 243.727 388.248 244.281C381.399 244.818 374.55 245.357 367.702 245.899C367.28 245.932 366.859 245.966 366.425 246C365.576 246.067 364.727 246.135 363.878 246.202C363.459 246.235 363.04 246.268 362.609 246.302C361.982 246.352 361.982 246.352 361.343 246.403C354.816 246.919 348.289 247.434 341.761 247.948C339.397 248.135 337.032 248.321 334.668 248.508C330.915 248.804 327.161 249.1 323.408 249.394C321.693 249.528 319.978 249.662 318.264 249.798C316.692 249.923 315.121 250.046 313.549 250.168C312.982 250.212 312.416 250.257 311.849 250.302C309.045 250.526 306.259 250.711 303.446 250.712C302.301 250.718 301.161 250.777 300.018 250.836C286.608 251.512 272.97 249.192 260.53 244.166C260.242 244.05 259.954 243.934 259.657 243.814C246.583 238.431 235.191 228.84 226.528 217.773C226.302 217.487 226.075 217.201 225.841 216.907C219.373 208.652 214.301 198.142 212.294 187.835C212.083 186.998 211.87 186.162 211.654 185.326C211.153 183.234 210.765 181.14 210.43 179.016C210.387 178.744 210.344 178.473 210.3 178.193C210.155 177.235 210.021 176.276 209.89 175.316C209.829 174.87 209.767 174.423 209.704 173.963C209.101 169.335 208.742 164.696 208.396 160.043C208.283 158.519 208.168 156.995 208.051 155.472C208.027 155.133 208.002 154.794 207.977 154.445C207.852 152.808 207.683 151.196 207.425 149.574C207.067 147.174 206.867 144.771 206.683 142.351C206.646 141.876 206.609 141.4 206.57 140.91C206.469 139.618 206.369 138.326 206.27 137.034C206.165 135.673 206.058 134.313 205.951 132.953C205.658 129.208 205.367 125.463 205.076 121.718C204.809 118.282 204.542 114.847 204.272 111.411C204.166 110.061 204.061 108.711 203.957 107.361C203.841 105.854 203.723 104.348 203.605 102.842C203.572 102.401 203.538 101.961 203.504 101.508C203.356 99.6425 203.184 97.7982 202.89 95.9503C202.404 92.7978 202.209 89.6117 201.962 86.4335C201.904 85.7029 201.846 84.9723 201.788 84.2417C201.632 82.2692 201.477 80.2967 201.322 78.3241C201.16 76.2585 200.997 74.1931 200.833 72.1277C200.524 68.2214 200.217 64.3149 199.91 60.4085C199.56 55.959 199.209 51.5097 198.858 47.0604C198.135 37.9123 197.415 28.7641 196.695 19.6158C200.426 17.9437 205.044 18.4682 209.042 18.6363C209.528 18.656 210.014 18.6757 210.514 18.6961C214.059 18.8779 217.515 19.3093 221.006 19.9467C221.518 20.0386 222.03 20.1305 222.557 20.2252C242.231 24.0178 260.156 36.7408 271.452 53.1053C272.421 54.5554 273.343 56.0323 274.249 57.5223C274.401 57.7658 274.552 58.0094 274.708 58.2603C279.89 66.6691 282.94 76.3684 284.421 86.0878C284.485 86.4927 284.548 86.8976 284.614 87.3148C285.418 92.8751 285.929 98.5181 285.714 104.136C285.659 106.098 285.742 108.052 285.815 110.013C285.856 111.191 285.882 112.365 285.893 113.543C285.919 116.023 285.965 118.501 286.059 120.979C286.074 121.407 286.089 121.834 286.104 122.275C286.743 133.677 290.687 146.158 299.38 153.94C300.009 154.482 300.642 155.019 301.278 155.552C301.61 155.832 301.943 156.113 302.285 156.402C305.51 159.085 308.721 161.462 312.8 162.634C313.261 162.774 313.722 162.914 314.198 163.058C324.327 166.057 334.479 166.085 344.843 164.328C345.676 164.196 346.51 164.067 347.344 163.937C349.54 163.594 351.735 163.247 353.928 162.891C365.222 161.062 375.992 160.275 387.327 162.37C387.584 162.416 387.841 162.463 388.105 162.51C392.471 163.309 396.524 164.666 400.65 166.288C401.445 166.591 402.245 166.862 403.052 167.131C405.159 167.89 407.071 169.008 409.013 170.111C409.408 170.335 409.802 170.558 410.209 170.789C411.329 171.427 412.445 172.071 413.561 172.716C413.817 172.862 414.073 173.008 414.337 173.158C430.562 182.487 442.089 200.165 447.159 217.858C452.179 236.469 452.179 236.469 449.587 238.955Z" fill="white"/>
<path d="M182.512 382.323C186.245 329.393 157.722 313.575 136.609 316.655C199.643 307.46 235.548 350.527 248.839 371.342C260.479 389.571 268.166 436.351 268.166 461.169C255.428 468.198 177.842 448.523 182.512 382.323Z" fill="#707CBF"/>
<path d="M285.518 99.5189C281.784 152.449 310.307 168.267 331.42 165.188C268.387 174.382 232.481 131.315 219.19 110.501C207.55 92.2714 199.863 45.4909 199.863 20.6729C212.601 13.6445 290.187 33.3192 285.518 99.5189Z" fill="#707CBF"/>
</svg>
