<svg width="975" height="400" viewBox="0 0 975 400" fill="none" xmlns="http://www.w3.org/2000/svg">
<g clip-path="url(#clip0_112_741)">
<path d="M232.027 191.813C231.467 192.122 231.007 192.147 230.37 192.198C230.112 192.219 229.854 192.241 229.589 192.263C229.301 192.284 229.014 192.306 228.726 192.327C228.422 192.352 228.117 192.377 227.813 192.401C226.975 192.469 226.136 192.534 225.298 192.599C224.394 192.669 223.49 192.741 222.587 192.814C220.816 192.955 219.044 193.094 217.273 193.232C215.21 193.393 213.147 193.557 211.084 193.72C207.403 194.012 203.721 194.302 200.039 194.59C196.467 194.87 192.895 195.151 189.324 195.434C189.104 195.451 188.884 195.469 188.658 195.487C188.215 195.522 187.773 195.557 187.33 195.592C187.112 195.609 186.893 195.626 186.668 195.644C186.341 195.67 186.341 195.67 186.008 195.696C182.604 195.966 179.2 196.234 175.796 196.502C174.563 196.599 173.33 196.697 172.097 196.794C170.14 196.949 168.182 197.103 166.225 197.256C165.331 197.326 164.437 197.396 163.543 197.467C162.723 197.532 161.903 197.596 161.084 197.66C160.788 197.683 160.493 197.706 160.197 197.73C158.735 197.846 157.282 197.943 155.815 197.944C155.218 197.946 154.624 197.977 154.027 198.008C147.034 198.361 139.922 197.151 133.435 194.53C133.285 194.47 133.134 194.409 132.98 194.347C126.161 191.54 120.221 186.539 115.703 180.769C115.585 180.62 115.467 180.471 115.345 180.317C111.972 176.013 109.327 170.533 108.28 165.159C108.17 164.723 108.059 164.287 107.947 163.851C107.685 162.76 107.483 161.668 107.308 160.561C107.286 160.419 107.264 160.278 107.24 160.132C107.165 159.632 107.095 159.132 107.026 158.632C106.994 158.399 106.963 158.166 106.93 157.926C106.615 155.513 106.428 153.095 106.247 150.668C106.188 149.874 106.128 149.079 106.068 148.285C106.055 148.108 106.042 147.932 106.029 147.75C105.964 146.896 105.875 146.055 105.741 145.21C105.554 143.958 105.45 142.706 105.354 141.444C105.335 141.196 105.315 140.948 105.295 140.692C105.243 140.019 105.19 139.345 105.139 138.671C105.084 137.962 105.028 137.253 104.972 136.544C104.819 134.591 104.668 132.638 104.516 130.686C104.377 128.894 104.238 127.103 104.097 125.312C104.042 124.608 103.987 123.904 103.933 123.2C103.872 122.414 103.811 121.629 103.749 120.844C103.732 120.614 103.714 120.384 103.696 120.148C103.619 119.175 103.53 118.214 103.376 117.25C103.123 115.607 103.021 113.945 102.892 112.288C102.862 111.907 102.832 111.526 102.801 111.145C102.72 110.117 102.639 109.089 102.559 108.06C102.474 106.983 102.389 105.906 102.304 104.829C102.142 102.792 101.982 100.756 101.822 98.7188C101.64 96.3988 101.456 94.079 101.273 91.7591C100.896 86.9893 100.521 82.2194 100.146 77.4494C102.091 76.5776 104.5 76.8511 106.585 76.9387C106.838 76.949 107.091 76.9593 107.352 76.9699C109.201 77.0647 111.003 77.2896 112.824 77.622C113.09 77.6699 113.357 77.7178 113.632 77.7672C123.892 79.7447 133.24 86.3784 139.13 94.9109C139.636 95.667 140.116 96.437 140.589 97.2139C140.668 97.3409 140.747 97.4679 140.829 97.5988C143.531 101.983 145.121 107.04 145.894 112.108C145.927 112.319 145.96 112.53 145.994 112.748C146.413 115.647 146.68 118.589 146.568 121.518C146.54 122.542 146.583 123.56 146.621 124.583C146.642 125.197 146.655 125.809 146.661 126.423C146.675 127.716 146.699 129.008 146.748 130.3C146.756 130.523 146.763 130.746 146.772 130.976C147.104 136.921 149.162 143.429 153.695 147.486C154.023 147.769 154.353 148.049 154.685 148.327C154.858 148.473 155.031 148.619 155.21 148.77C156.891 150.169 158.566 151.408 160.693 152.019C160.934 152.092 161.174 152.165 161.422 152.24C166.704 153.804 171.999 153.818 177.403 152.903C177.838 152.834 178.273 152.766 178.708 152.699C179.853 152.52 180.997 152.339 182.141 152.153C188.031 151.2 193.647 150.789 199.558 151.882C199.692 151.906 199.826 151.93 199.964 151.955C202.241 152.371 204.354 153.079 206.506 153.924C206.921 154.083 207.338 154.224 207.759 154.364C208.858 154.76 209.854 155.343 210.867 155.918C211.073 156.035 211.279 156.151 211.491 156.271C212.075 156.604 212.657 156.94 213.239 157.276C213.373 157.352 213.506 157.428 213.644 157.507C222.105 162.371 228.116 171.588 230.76 180.813C233.378 190.517 233.378 190.517 232.027 191.813Z" fill="#3548A4"/>
<path d="M170.362 154.104C169.798 154.584 169.445 154.657 168.711 154.64C167.807 154.629 166.912 154.648 166.009 154.688C161.682 154.826 157.205 154.529 152.955 153.717C152.771 153.682 152.587 153.647 152.397 153.611C147.52 152.669 142.688 151.404 138.173 149.294C137.928 149.185 137.683 149.076 137.43 148.964C135.406 148.043 133.497 146.959 131.6 145.802C131.422 145.694 131.422 145.694 131.24 145.583C128.503 143.914 126.059 142.036 123.618 139.965C123.46 139.831 123.302 139.697 123.139 139.559C120.731 137.51 118.552 135.418 116.586 132.934C116.203 132.455 115.804 131.992 115.403 131.527C114.582 130.554 113.878 129.528 113.189 128.46C113.066 128.269 112.942 128.079 112.815 127.883C108.002 120.407 104.532 112.186 103.611 103.282C103.544 102.663 103.467 102.045 103.39 101.426C103.026 98.4747 103.026 98.4747 102.966 97.1589C103.055 97.0546 103.144 96.9504 103.235 96.843C103.149 96.6676 103.149 96.6676 103.06 96.4887C102.846 95.9149 102.788 95.4287 102.78 94.8175C102.869 94.7132 102.958 94.609 103.05 94.5016C102.963 94.3262 102.963 94.3262 102.874 94.1473C102.66 93.5735 102.602 93.0873 102.595 92.4761C102.683 92.3718 102.772 92.2676 102.864 92.1602C102.806 92.0396 102.749 91.919 102.69 91.7948C102.492 91.2791 102.433 90.8626 102.394 90.313C102.38 90.1243 102.366 89.9356 102.352 89.7411C102.332 89.4477 102.332 89.4477 102.312 89.1483C102.298 88.9551 102.284 88.7618 102.27 88.5627C102.243 88.1988 102.218 87.8348 102.193 87.4708C102.145 86.7975 102.091 86.1247 102.037 85.4519C101.859 83.208 101.682 80.9642 101.504 78.7203C102.606 78.4009 103.556 78.2109 104.7 78.1723C104.804 78.2612 104.908 78.3502 105.016 78.4418C105.12 78.3802 105.224 78.3186 105.332 78.2551C106.112 78.0007 106.849 78.0961 107.654 78.1681C107.825 78.1824 107.997 78.1968 108.174 78.2116C110.853 78.449 113.431 78.9504 116.028 79.6332C116.32 79.708 116.614 79.7787 116.908 79.8459C117.964 80.0891 118.92 80.4332 119.907 80.8777C120.95 81.3442 120.95 81.3442 122.022 81.7373C122.594 81.9391 123.059 82.2157 123.573 82.5381C124.177 82.9165 124.769 83.2543 125.413 83.5639C126.318 84.0074 127.127 84.5643 127.949 85.1454C128.092 85.2438 128.235 85.3421 128.382 85.4435C130.701 87.0713 132.756 88.9894 134.728 91.0134C134.832 91.1194 134.935 91.2253 135.042 91.3344C137.224 93.5739 139.161 95.9005 140.58 98.6998C140.825 99.1667 141.092 99.6118 141.373 100.058C141.761 100.688 142.004 101.289 142.226 101.997C142.478 102.402 142.478 102.402 142.723 102.694C142.634 102.798 142.545 102.902 142.453 103.01C142.552 103.124 142.651 103.239 142.753 103.358C144.794 106.132 145.225 110.547 145.639 113.876C145.712 114.443 145.802 115.003 145.898 115.566C146.266 118.064 146.208 120.644 146.198 123.163C146.198 123.328 146.198 123.493 146.198 123.662C146.197 123.881 146.197 123.881 146.196 124.103C146.209 124.565 146.209 124.565 146.424 125.225C146.61 125.113 146.233 125.341 146.424 125.225C146.405 124.708 146.444 125.742 146.424 125.225C146.43 125.381 146.606 127.245 146.612 127.405C146.641 128.228 146.953 128.924 147.067 129.43C147.152 135.734 148.834 142.317 153.164 147.074C153.785 147.674 154.433 148.235 155.095 148.789C155.268 148.935 155.442 149.082 155.62 149.232C157.302 150.631 158.976 151.871 161.103 152.482C161.344 152.555 161.584 152.628 161.832 152.703C164.431 153.472 166.996 153.932 169.717 153.955C170.204 153.969 170.204 153.969 170.362 154.104Z" fill="#FBF2FF" fill-opacity="0.3"/>
<path d="M9.68053 193.867C10.24 193.558 10.6998 193.532 11.3367 193.482C11.5947 193.461 11.8526 193.439 12.1184 193.417C12.4059 193.395 12.6933 193.374 12.9808 193.352C13.2852 193.328 13.5897 193.303 13.8941 193.278C14.7324 193.211 15.5709 193.146 16.4094 193.081C17.3131 193.011 18.2166 192.938 19.1202 192.866C20.8913 192.725 22.6627 192.586 24.4341 192.448C26.4971 192.286 28.5599 192.123 30.6227 191.96C34.3044 191.668 37.9863 191.378 41.6683 191.09C45.24 190.81 48.8116 190.529 52.3831 190.246C52.6029 190.228 52.8226 190.211 53.0491 190.193C53.4917 190.158 53.9344 190.123 54.3771 190.088C54.5955 190.071 54.8139 190.053 55.0389 190.036C55.3657 190.01 55.3657 190.01 55.699 189.983C59.1029 189.714 62.5068 189.446 65.9107 189.177C67.1438 189.08 68.3769 188.983 69.61 188.886C71.5672 188.731 73.5245 188.577 75.4819 188.424C76.3761 188.354 77.2703 188.284 78.1645 188.213C78.984 188.148 79.8035 188.084 80.6231 188.02C80.9187 187.997 81.2143 187.974 81.5098 187.95C82.9718 187.834 84.4247 187.737 85.8918 187.736C86.489 187.733 87.0834 187.703 87.6797 187.672C94.6729 187.319 101.785 188.529 108.272 191.15C108.422 191.21 108.573 191.27 108.727 191.333C115.546 194.14 121.486 199.14 126.004 204.911C126.122 205.06 126.24 205.209 126.362 205.362C129.735 209.667 132.38 215.146 133.427 220.521C133.537 220.957 133.648 221.393 133.761 221.829C134.022 222.92 134.224 224.011 134.399 225.119C134.421 225.26 134.444 225.402 134.467 225.548C134.542 226.047 134.612 226.547 134.681 227.048C134.713 227.281 134.744 227.513 134.777 227.753C135.092 230.166 135.279 232.585 135.46 235.011C135.519 235.806 135.579 236.6 135.639 237.395C135.652 237.571 135.665 237.748 135.678 237.93C135.743 238.783 135.832 239.624 135.966 240.47C136.153 241.721 136.257 242.974 136.353 244.236C136.372 244.484 136.392 244.732 136.412 244.987C136.465 245.661 136.517 246.335 136.568 247.008C136.623 247.718 136.679 248.427 136.735 249.136C136.888 251.089 137.039 253.041 137.191 254.994C137.33 256.785 137.469 258.577 137.61 260.368C137.665 261.072 137.72 261.776 137.774 262.48C137.835 263.265 137.896 264.051 137.958 264.836C137.975 265.066 137.993 265.295 138.011 265.532C138.088 266.504 138.177 267.466 138.331 268.429C138.584 270.073 138.686 271.734 138.815 273.391C138.845 273.772 138.875 274.153 138.906 274.534C138.987 275.563 139.068 276.591 139.148 277.62C139.233 278.697 139.318 279.774 139.404 280.85C139.565 282.887 139.725 284.924 139.885 286.961C140.067 289.281 140.251 291.601 140.434 293.921C140.811 298.69 141.186 303.46 141.561 308.23C139.616 309.102 137.207 308.829 135.123 308.741C134.869 308.731 134.616 308.72 134.355 308.71C132.506 308.615 130.704 308.39 128.883 308.058C128.617 308.01 128.35 307.962 128.075 307.912C117.815 305.935 108.467 299.301 102.577 290.769C102.071 290.013 101.591 289.243 101.118 288.466C101.039 288.339 100.96 288.212 100.878 288.081C98.1759 283.697 96.5857 278.639 95.813 273.572C95.78 273.361 95.7469 273.149 95.7128 272.932C95.2935 270.033 95.0271 267.09 95.1392 264.161C95.1675 263.138 95.1245 262.12 95.0865 261.097C95.0648 260.483 95.0516 259.871 95.0458 259.256C95.032 257.963 95.0081 256.672 94.9592 255.379C94.9514 255.156 94.9435 254.933 94.9355 254.704C94.6026 248.758 92.5454 242.251 88.0123 238.193C87.6842 237.911 87.3542 237.631 87.0225 237.353C86.8491 237.207 86.6758 237.061 86.4971 236.91C84.8157 235.511 83.141 234.271 81.0141 233.66C80.7735 233.587 80.5329 233.514 80.285 233.439C75.0026 231.876 69.7083 231.861 64.3039 232.777C63.8692 232.846 63.4343 232.913 62.9994 232.981C61.8544 233.16 60.7098 233.34 59.5659 233.527C53.676 234.48 48.0597 234.89 42.1488 233.798C42.0148 233.774 41.8808 233.75 41.7427 233.725C39.4659 233.308 37.3527 232.601 35.2008 231.755C34.7863 231.597 34.369 231.456 33.9482 231.316C32.8495 230.92 31.8526 230.337 30.8396 229.762C30.6338 229.645 30.428 229.529 30.2161 229.408C29.632 229.076 29.0496 228.74 28.4678 228.404C28.3343 228.328 28.2009 228.251 28.0634 228.173C19.6021 223.309 13.5906 214.092 10.9466 204.866C8.32879 195.163 8.32879 195.163 9.68053 193.867Z" fill="#3548A4"/>
<path d="M71.3169 231.58C71.8807 231.1 72.2341 231.026 72.9679 231.044C73.8716 231.054 74.7669 231.035 75.6699 230.995C79.9966 230.858 84.474 231.155 88.724 231.966C88.908 232.001 89.0919 232.036 89.2814 232.072C94.1589 233.014 98.9909 234.279 103.506 236.39C103.751 236.498 103.996 236.607 104.248 236.719C106.273 237.64 108.182 238.725 110.078 239.881C110.257 239.99 110.257 239.99 110.439 240.1C113.176 241.77 115.619 243.647 118.061 245.718C118.219 245.852 118.377 245.986 118.54 246.124C120.947 248.174 123.127 250.265 125.092 252.749C125.476 253.229 125.875 253.692 126.276 254.157C127.096 255.129 127.801 256.155 128.49 257.224C128.613 257.414 128.736 257.604 128.863 257.8C133.677 265.277 137.147 273.497 138.068 282.402C138.134 283.021 138.212 283.639 138.289 284.257C138.653 287.209 138.653 287.209 138.713 288.525C138.624 288.629 138.535 288.733 138.443 288.841C138.53 289.016 138.53 289.016 138.619 289.195C138.833 289.769 138.891 290.255 138.898 290.866C138.81 290.97 138.721 291.075 138.629 291.182C138.716 291.357 138.716 291.357 138.804 291.536C139.019 292.11 139.076 292.596 139.084 293.208C138.995 293.312 138.906 293.416 138.815 293.523C138.872 293.644 138.93 293.765 138.989 293.889C139.187 294.404 139.246 294.821 139.284 295.371C139.298 295.559 139.312 295.748 139.327 295.942C139.347 296.236 139.347 296.236 139.366 296.535C139.38 296.729 139.394 296.922 139.409 297.121C139.435 297.485 139.461 297.849 139.486 298.213C139.534 298.886 139.587 299.559 139.641 300.232C139.819 302.476 139.997 304.719 140.175 306.963C139.073 307.283 138.122 307.473 136.979 307.511C136.875 307.422 136.77 307.333 136.663 307.242C136.559 307.303 136.455 307.365 136.347 307.429C135.567 307.683 134.829 307.588 134.025 307.515C133.853 307.501 133.682 307.487 133.505 307.472C130.825 307.235 128.248 306.733 125.651 306.05C125.358 305.976 125.065 305.905 124.771 305.838C123.715 305.594 122.759 305.25 121.772 304.806C120.729 304.339 120.729 304.339 119.657 303.946C119.084 303.745 118.619 303.468 118.106 303.145C117.501 302.767 116.91 302.429 116.266 302.12C115.36 301.676 114.552 301.119 113.73 300.538C113.587 300.44 113.444 300.341 113.297 300.24C110.978 298.612 108.923 296.694 106.951 294.67C106.847 294.564 106.743 294.458 106.637 294.349C104.455 292.11 102.518 289.783 101.099 286.984C100.854 286.517 100.586 286.072 100.306 285.625C99.9177 284.996 99.6744 284.394 99.4528 283.687C99.2005 283.282 99.2005 283.282 98.9558 282.99C99.0447 282.886 99.1336 282.781 99.2252 282.674C99.1265 282.559 99.0278 282.444 98.9261 282.326C96.8847 279.551 96.454 275.137 96.0401 271.808C95.9667 271.241 95.8766 270.681 95.7811 270.117C95.4127 267.619 95.4707 265.04 95.4808 262.521C95.4807 262.356 95.4807 262.191 95.4807 262.021C95.4816 261.803 95.4816 261.803 95.4826 261.58C95.4696 261.118 95.4696 261.118 95.2543 260.458C95.0688 260.57 95.4455 260.343 95.2543 260.458C95.2735 260.975 95.2345 259.941 95.2543 260.458C95.2486 260.303 95.0727 258.439 95.0668 258.279C95.0373 257.456 94.7254 256.76 94.6116 256.254C94.5268 249.95 92.8447 243.366 88.5146 238.61C87.8936 238.01 87.2456 237.449 86.5839 236.894C86.4105 236.748 86.2372 236.602 86.0586 236.451C84.3771 235.052 82.7025 233.813 80.5755 233.202C80.3349 233.129 80.0943 233.056 79.8464 232.981C77.2481 232.212 74.6825 231.752 71.9615 231.729C71.4748 231.715 71.4748 231.715 71.3169 231.58Z" fill="#FBF2FF" fill-opacity="0.3"/>
<path d="M379.078 311.996L320.358 136.173H373.709L410.954 273.744H416.323L453.568 136.173H504.905L445.85 311.996H379.078ZM547.608 311.996V135.837H595.926V311.996H547.608ZM572.102 109.33C562.707 109.33 555.437 107.428 550.292 103.625C545.371 99.5989 542.91 93.7829 542.91 86.1773C542.91 78.3481 545.371 72.4202 550.292 68.3937C555.437 64.3672 562.707 62.354 572.102 62.354C581.721 62.354 588.991 64.3672 593.913 68.3937C599.058 72.4202 601.63 78.3481 601.63 86.1773C601.63 93.5592 599.058 99.2634 593.913 103.29C588.991 107.316 581.721 109.33 572.102 109.33ZM722.875 316.023C703.19 316.023 688.65 310.878 679.255 300.588C670.084 290.074 665.498 273.409 665.498 250.592V173.753H639.997L640.668 135.837H658.452C665.386 135.837 670.531 134.831 673.887 132.817C677.242 130.804 679.255 127.113 679.926 121.745L684.288 96.5791H711.803V135.837H756.43V175.096H711.803V248.579C711.803 256.632 713.704 262.448 717.507 266.027C721.31 269.606 727.126 271.396 734.955 271.396C739.205 271.396 743.232 270.948 747.034 270.054C751.061 269.159 754.528 267.705 757.436 265.692V310.654C750.502 312.891 744.126 314.345 738.31 315.016C732.494 315.687 727.349 316.023 722.875 316.023ZM848.858 316.694C839.015 316.694 830.291 314.792 822.686 310.989C815.08 306.963 809.152 301.259 804.902 293.877C800.652 286.495 798.527 277.324 798.527 266.363C798.527 256.744 800.316 248.691 803.895 242.204C807.698 235.717 813.179 230.46 820.337 226.433C827.495 222.407 836.331 219.051 846.845 216.367C857.358 213.683 869.326 211.334 882.747 209.321C889.906 208.202 895.722 207.196 900.196 206.301C904.893 205.182 908.36 203.505 910.597 201.268C912.834 198.807 913.953 195.34 913.953 190.866C913.953 184.603 911.716 179.234 907.242 174.76C902.768 170.286 895.722 168.049 886.103 168.049C879.616 168.049 873.576 169.168 867.984 171.405C862.615 173.642 857.917 176.997 853.891 181.471C850.088 185.945 847.292 191.649 845.502 198.583L802.889 185.497C805.573 176.326 809.376 168.385 814.297 161.674C819.442 154.963 825.594 149.371 832.752 144.897C839.91 140.199 848.075 136.732 857.246 134.495C866.418 132.258 876.372 131.14 887.109 131.14C904.334 131.14 918.315 133.936 929.052 139.528C940.013 144.897 948.178 153.397 953.546 165.029C958.915 176.438 961.599 191.202 961.599 209.321V239.519C961.599 247.349 961.711 255.29 961.935 263.343C962.382 271.396 962.83 279.561 963.277 287.837C963.948 295.89 964.619 303.943 965.29 311.996H922.677C921.782 306.404 920.887 300.028 919.992 292.87C919.321 285.488 918.762 278.107 918.315 270.725H912.275C909.143 279.225 904.669 286.942 898.853 293.877C893.037 300.811 885.879 306.404 877.379 310.654C869.102 314.68 859.595 316.694 848.858 316.694ZM869.326 281.797C873.576 281.797 877.826 281.015 882.076 279.449C886.55 277.883 890.8 275.758 894.827 273.073C899.077 270.165 902.88 266.586 906.235 262.336C909.814 258.086 912.722 253.277 914.959 247.908L914.288 219.722L922.006 221.4C917.979 224.308 913.282 226.657 907.913 228.447C902.544 230.012 896.952 231.243 891.136 232.137C885.544 233.032 879.951 234.039 874.359 235.157C868.767 236.276 863.733 237.73 859.26 239.519C855.009 241.309 851.542 243.77 848.858 246.901C846.397 249.809 845.167 253.948 845.167 259.316C845.167 266.251 847.404 271.731 851.878 275.758C856.352 279.784 862.168 281.797 869.326 281.797Z" fill="#3548A4"/>
</g>
<defs>
<clipPath id="clip0_112_741">
<rect width="975" height="400" fill="white"/>
</clipPath>
</defs>
</svg>
