<svg width="102" height="106" viewBox="0 0 102 106" fill="none" xmlns="http://www.w3.org/2000/svg">
<path opacity="0.2" d="M96.9802 52.0755C96.7463 52.2045 96.5541 52.2152 96.2879 52.2362C96.1801 52.2452 96.0723 52.2541 95.9612 52.2634C95.841 52.2724 95.7209 52.2814 95.6007 52.2905C95.4735 52.3007 95.3462 52.311 95.219 52.3214C94.8686 52.3497 94.5181 52.3768 94.1677 52.4038C93.7899 52.4331 93.4123 52.4635 93.0346 52.4937C92.2943 52.5528 91.554 52.6108 90.8136 52.6686C89.9513 52.7359 89.0891 52.8042 88.2269 52.8726C86.688 52.9945 85.1491 53.1156 83.6101 53.2362C82.1172 53.3532 80.6243 53.4707 79.1316 53.5889C79.0397 53.5961 78.9479 53.6034 78.8532 53.6109C78.6682 53.6256 78.4832 53.6402 78.2981 53.6549C78.2068 53.6621 78.1156 53.6693 78.0215 53.6768C77.8849 53.6876 77.8849 53.6876 77.7456 53.6986C76.3229 53.8112 74.9001 53.9234 73.4774 54.0354C72.962 54.076 72.4466 54.1167 71.9312 54.1574C71.1131 54.222 70.295 54.2864 69.4769 54.3504C69.1031 54.3797 68.7293 54.409 68.3556 54.4386C68.0131 54.4657 67.6705 54.4926 67.328 54.5192C67.2044 54.5288 67.0809 54.5386 66.9574 54.5484C66.3463 54.5971 65.739 54.6375 65.1258 54.6378C64.8762 54.639 64.6277 54.6518 64.3785 54.6649C61.4555 54.8121 58.4828 54.3065 55.7714 53.2111C55.7086 53.1858 55.6458 53.1606 55.5811 53.1346C52.7313 51.9613 50.2482 49.8712 48.36 47.4593C48.3106 47.397 48.2612 47.3347 48.2103 47.2705C46.8005 45.4715 45.6948 43.1811 45.2574 40.9348C45.2114 40.7525 45.1649 40.5702 45.1179 40.3881C45.0086 39.9321 44.9241 39.4757 44.8511 39.0128C44.8418 38.9537 44.8324 38.8945 44.8228 38.8335C44.7912 38.6248 44.7619 38.4158 44.7333 38.2066C44.72 38.1093 44.7066 38.012 44.6929 37.9117C44.5615 36.9031 44.4831 35.8921 44.4077 34.878C44.3831 34.5459 44.3579 34.2138 44.3326 33.8818C44.3272 33.808 44.3219 33.7341 44.3164 33.6581C44.2891 33.3014 44.2523 32.9499 44.196 32.5966C44.1181 32.0734 44.0745 31.5498 44.0344 31.0225C44.0263 30.9188 44.0181 30.8151 44.0097 30.7083C43.9877 30.4267 43.9659 30.1451 43.9443 29.8635C43.9214 29.5671 43.8981 29.2707 43.8748 28.9743C43.8108 28.1582 43.7474 27.342 43.6841 26.5258C43.6259 25.777 43.5676 25.0283 43.5089 24.2796C43.4858 23.9854 43.4628 23.6912 43.4402 23.3969C43.4149 23.0686 43.3892 22.7403 43.3635 22.412C43.3562 22.3161 43.3489 22.2201 43.3414 22.1213C43.3092 21.7148 43.2718 21.3129 43.2076 20.9102C43.1017 20.2231 43.0592 19.5288 43.0053 18.8361C42.9927 18.6769 42.9801 18.5177 42.9674 18.3585C42.9333 17.9286 42.8995 17.4987 42.8659 17.0688C42.8306 16.6187 42.7949 16.1686 42.7593 15.7184C42.6919 14.8671 42.6249 14.0158 42.558 13.1644C42.4818 12.1948 42.4052 11.2251 42.3286 10.2555C42.1711 8.26181 42.0141 6.26811 41.8573 4.2744C42.6705 3.91 43.6772 4.0243 44.5486 4.06094C44.6545 4.06524 44.7603 4.06953 44.8694 4.07397C45.6421 4.1136 46.3954 4.20761 47.1564 4.34651C47.2679 4.36654 47.3795 4.38657 47.4944 4.40721C51.7826 5.23375 55.6898 8.00649 58.152 11.5728C58.3633 11.8889 58.5641 12.2107 58.7618 12.5355C58.7948 12.5885 58.8278 12.6416 58.8618 12.6963C59.9913 14.5288 60.656 16.6426 60.979 18.7608C60.9928 18.8491 61.0066 18.9373 61.0209 19.0282C61.1961 20.24 61.3075 21.4698 61.2606 22.694C61.2488 23.1218 61.2668 23.5475 61.2826 23.975C61.2917 24.2315 61.2972 24.4875 61.2997 24.7442C61.3054 25.2847 61.3154 25.8246 61.3359 26.3647C61.3391 26.4579 61.3424 26.5511 61.3458 26.6472C61.4849 29.1321 62.3448 31.8521 64.2395 33.5481C64.3766 33.666 64.5145 33.7831 64.6532 33.8992C64.7257 33.9604 64.7981 34.0215 64.8728 34.0845C65.5756 34.6692 66.2756 35.1873 67.1645 35.4427C67.2651 35.4732 67.3657 35.5037 67.4693 35.5351C69.6772 36.1886 71.8901 36.1947 74.149 35.812C74.3307 35.7832 74.5125 35.7549 74.6942 35.7266C75.1728 35.652 75.6512 35.5764 76.1293 35.4986C78.5912 35.1001 80.9387 34.9286 83.4092 35.3853C83.4653 35.3953 83.5213 35.4053 83.579 35.4157C84.5306 35.5898 85.4139 35.8856 86.3133 36.239C86.4866 36.3051 86.661 36.364 86.8369 36.4228C87.2961 36.5882 87.7128 36.8319 88.1362 37.0723C88.2222 37.121 88.3082 37.1697 88.3968 37.2199C88.6409 37.359 88.8844 37.4992 89.1276 37.6399C89.1834 37.6717 89.2391 37.7035 89.2966 37.7362C92.8332 39.7694 95.3458 43.6219 96.451 47.4779C97.5451 51.5337 97.5451 51.5337 96.9802 52.0755Z" fill="white"/>
<path opacity="0.1" d="M71.2175 36.3137C70.9818 36.5145 70.8341 36.5451 70.5274 36.5377C70.1497 36.5334 69.7755 36.5414 69.398 36.558C67.5896 36.6155 65.7181 36.4914 63.9417 36.1522C63.8649 36.1376 63.788 36.123 63.7088 36.1079C61.6701 35.7142 59.6505 35.1854 57.7632 34.3033C57.6608 34.2579 57.5584 34.2125 57.4529 34.1656C56.6068 33.7807 55.8089 33.3274 55.0162 32.844C54.9417 32.7987 54.9417 32.7987 54.8656 32.7524C53.7214 32.0546 52.7002 31.2699 51.6798 30.4042C51.6137 30.3482 51.5476 30.2922 51.4795 30.2345C50.4732 29.378 49.5621 28.5038 48.7407 27.4654C48.5803 27.2651 48.4136 27.0715 48.246 26.8773C47.9031 26.4708 47.6085 26.0418 47.3206 25.5951C47.2691 25.5157 47.2176 25.4362 47.1646 25.3543C45.1525 22.2292 43.7023 18.7933 43.3173 15.0716C43.2895 14.8127 43.257 14.5544 43.2249 14.296C43.0728 13.0623 43.0728 13.0623 43.0477 12.5123C43.0849 12.4687 43.1221 12.4251 43.1604 12.3802C43.1241 12.3069 43.1241 12.3069 43.0871 12.2322C42.9975 11.9923 42.9733 11.7891 42.9701 11.5336C43.0073 11.4901 43.0445 11.4465 43.0828 11.4016C43.0465 11.3283 43.0465 11.3283 43.0095 11.2535C42.9199 11.0137 42.8957 10.8104 42.8925 10.555C42.9297 10.5114 42.9668 10.4678 43.0051 10.4229C42.9811 10.3725 42.957 10.3221 42.9322 10.2702C42.8495 10.0547 42.8249 9.88058 42.8088 9.65087C42.8029 9.57199 42.7971 9.49311 42.791 9.41184C42.7828 9.2892 42.7828 9.2892 42.7745 9.16407C42.7686 9.08329 42.7628 9.0025 42.7568 8.91927C42.7458 8.76717 42.735 8.61505 42.7246 8.4629C42.7047 8.18147 42.6822 7.90027 42.6596 7.61904C42.5853 6.68117 42.5109 5.7433 42.4365 4.80543C42.8971 4.67193 43.2944 4.5925 43.7724 4.57637C43.816 4.61354 43.8596 4.6507 43.9045 4.689C43.948 4.66325 43.9916 4.63749 44.0365 4.61096C44.3628 4.50463 44.6709 4.5445 45.0071 4.57461C45.0788 4.58061 45.1506 4.5866 45.2244 4.59278C46.3444 4.69203 47.4218 4.90158 48.5073 5.18699C48.6295 5.21824 48.7522 5.24782 48.8751 5.2759C49.3165 5.37754 49.7161 5.52136 50.1287 5.70715C50.5646 5.90213 50.5646 5.90213 51.0126 6.06645C51.2519 6.15078 51.4462 6.26639 51.6609 6.40116C51.9136 6.55934 52.1609 6.70052 52.4299 6.82992C52.8085 7.01527 53.1464 7.24806 53.49 7.49094C53.5498 7.53206 53.6095 7.57318 53.6711 7.61555C54.6402 8.2959 55.4992 9.09765 56.3235 9.94363C56.3668 9.98791 56.4101 10.0322 56.4547 10.0778C57.3665 11.0138 58.1764 11.9863 58.7694 13.1564C58.8718 13.3515 58.9836 13.5375 59.1007 13.7241C59.2631 13.9872 59.3648 14.2386 59.4574 14.5345C59.5629 14.7038 59.5629 14.7038 59.6651 14.8257C59.628 14.8693 59.5908 14.9129 59.5525 14.9578C59.5938 15.0057 59.635 15.0537 59.6775 15.1032C60.5308 16.2629 60.7108 18.1081 60.8838 19.4994C60.9145 19.7364 60.9522 19.9706 60.992 20.2061C61.146 21.2502 61.1218 22.3283 61.1176 23.3813C61.1176 23.4502 61.1176 23.5191 61.1176 23.5901C61.1172 23.6813 61.1172 23.6813 61.1168 23.7744C61.1223 23.9674 61.1223 23.9674 61.2122 24.2433C61.2898 24.1965 61.1323 24.2915 61.2122 24.2433C61.2042 24.0272 61.2205 24.4594 61.2122 24.2433C61.2147 24.3082 61.2882 25.0873 61.2906 25.1542C61.303 25.4984 61.4333 25.7891 61.4809 26.0008C61.5163 28.6356 62.2194 31.3873 64.0293 33.3755C64.2888 33.6262 64.5597 33.8607 64.8363 34.0924C64.9087 34.1535 64.9812 34.2146 65.0558 34.2776C65.7586 34.8624 66.4586 35.3805 67.3476 35.6359C67.4482 35.6664 67.5487 35.6969 67.6523 35.7283C68.7384 36.0496 69.8107 36.2419 70.9481 36.2514C71.1515 36.2574 71.1515 36.2574 71.2175 36.3137Z" fill="white"/>
<path opacity="0.2" d="M4.0467 52.9274C4.28054 52.7984 4.47271 52.7877 4.73895 52.7667C4.84677 52.7577 4.95459 52.7488 5.06568 52.7395C5.18582 52.7305 5.30597 52.7215 5.42612 52.7124C5.55338 52.7022 5.68064 52.6919 5.80789 52.6815C6.15826 52.6532 6.50872 52.6261 6.85919 52.5991C7.23693 52.5698 7.61458 52.5394 7.99224 52.5092C8.73254 52.4501 9.4729 52.3921 10.2133 52.3343C11.0756 52.267 11.9378 52.1987 12.8 52.1303C14.3389 52.0084 15.8778 51.8873 17.4168 51.7667C18.9097 51.6497 20.4025 51.5322 21.8953 51.414C21.9872 51.4067 22.079 51.3995 22.1736 51.392C22.3587 51.3773 22.5437 51.3627 22.7287 51.348C22.82 51.3408 22.9113 51.3336 23.0053 51.3261C23.1419 51.3153 23.1419 51.3153 23.2813 51.3043C24.704 51.1917 26.1267 51.0795 27.5495 50.9675C28.0649 50.9269 28.5803 50.8862 29.0957 50.8455C29.9138 50.7809 30.7319 50.7165 31.55 50.6525C31.9238 50.6232 32.2975 50.5939 32.6712 50.5643C33.0138 50.5372 33.3563 50.5103 33.6989 50.4837C33.8224 50.4741 33.946 50.4643 34.0695 50.4545C34.6806 50.4058 35.2878 50.3654 35.901 50.3651C36.1507 50.3639 36.3991 50.3511 36.6484 50.338C39.5713 50.1908 42.544 50.6964 45.2555 51.7918C45.3183 51.8171 45.3811 51.8423 45.4458 51.8683C48.2956 53.0416 50.7787 55.1317 52.6668 57.5436C52.7162 57.6059 52.7657 57.6682 52.8166 57.7324C54.2264 59.5314 55.3321 61.8218 55.7694 64.0681C55.8155 64.2504 55.862 64.4327 55.909 64.6148C56.0183 65.0708 56.1027 65.5272 56.1758 65.9901C56.1851 66.0492 56.1944 66.1084 56.2041 66.1694C56.2357 66.3781 56.265 66.5871 56.2936 66.7963C56.3069 66.8936 56.3202 66.9909 56.334 67.0912C56.4654 68.0998 56.5438 69.1108 56.6191 70.1249C56.6438 70.457 56.6689 70.789 56.6943 71.1211C56.6996 71.1949 56.705 71.2688 56.7105 71.3448C56.7377 71.7015 56.7746 72.053 56.8308 72.4063C56.9088 72.9295 56.9524 73.4531 56.9925 73.9804C57.0006 74.0841 57.0087 74.1878 57.0171 74.2946C57.0392 74.5762 57.0609 74.8578 57.0826 75.1394C57.1055 75.4358 57.1288 75.7322 57.1521 76.0286C57.216 76.8447 57.2794 77.6609 57.3428 78.4771C57.4009 79.2259 57.4592 79.9746 57.518 80.7233C57.5411 81.0175 57.564 81.3117 57.5866 81.606C57.6119 81.9343 57.6376 82.2626 57.6634 82.5909C57.6707 82.6868 57.678 82.7828 57.6855 82.8816C57.7177 83.2881 57.7551 83.69 57.8192 84.0927C57.9252 84.7798 57.9677 85.4741 58.0215 86.1667C58.0342 86.326 58.0468 86.4852 58.0595 86.6444C58.0936 87.0743 58.1273 87.5042 58.161 87.9341C58.1963 88.3842 58.232 88.8343 58.2676 89.2845C58.3349 90.1358 58.4019 90.9871 58.4688 91.8385C58.5451 92.8081 58.6216 93.7778 58.6982 94.7474C58.8557 96.7411 59.0128 98.7348 59.1695 100.729C58.3564 101.093 57.3497 100.979 56.4782 100.942C56.3724 100.938 56.2665 100.933 56.1574 100.929C55.3848 100.889 54.6314 100.795 53.8705 100.656C53.7589 100.636 53.6474 100.616 53.5324 100.596C49.2442 99.7691 45.3371 96.9964 42.8749 93.4301C42.6635 93.114 42.4627 92.7922 42.2651 92.4674C42.232 92.4144 42.199 92.3613 42.165 92.3066C41.0355 90.4741 40.3708 88.3603 40.0479 86.2421C40.0341 86.1538 40.0202 86.0656 40.006 85.9747C39.8307 84.7629 39.7194 83.5331 39.7662 82.3089C39.7781 81.8811 39.7601 81.4554 39.7442 81.0279C39.7352 80.7714 39.7296 80.5154 39.7272 80.2587C39.7214 79.7182 39.7114 79.1783 39.691 78.6382C39.6877 78.545 39.6845 78.4518 39.6811 78.3557C39.542 75.8708 38.6821 73.1508 36.7874 71.4548C36.6502 71.3369 36.5123 71.2198 36.3736 71.1037C36.3012 71.0425 36.2287 70.9814 36.1541 70.9184C35.4513 70.3337 34.7513 69.8156 33.8623 69.5602C33.7617 69.5297 33.6612 69.4992 33.5576 69.4678C31.3497 68.8143 29.1368 68.8082 26.8779 69.1909C26.6962 69.2197 26.5144 69.248 26.3326 69.2763C25.854 69.3509 25.3756 69.4265 24.8975 69.5043C22.4357 69.9028 20.0882 70.0743 17.6176 69.6176C17.5616 69.6076 17.5056 69.5976 17.4479 69.5872C16.4962 69.4131 15.613 69.1173 14.7135 68.7639C14.5403 68.6978 14.3659 68.6389 14.19 68.5801C13.7307 68.4147 13.3141 68.171 12.8906 67.9306C12.8046 67.8819 12.7186 67.8332 12.63 67.783C12.3859 67.6439 12.1425 67.5037 11.8993 67.363C11.8435 67.3312 11.7877 67.2994 11.7303 67.2667C8.19365 65.2335 5.68102 61.381 4.57588 57.525C3.48171 53.4692 3.48171 53.4692 4.0467 52.9274Z" fill="white"/>
<path opacity="0.1" d="M29.8133 68.6896C30.049 68.4888 30.1967 68.4583 30.5034 68.4656C30.8811 68.47 31.2553 68.4619 31.6327 68.4453C33.4412 68.3878 35.3126 68.512 37.089 68.8512C37.1659 68.8658 37.2428 68.8804 37.322 68.8954C39.3607 69.2891 41.3803 69.8179 43.2676 70.7C43.37 70.7455 43.4723 70.7909 43.5778 70.8377C44.4239 71.2227 45.2219 71.6759 46.0146 72.1594C46.0891 72.2047 46.0891 72.2047 46.1651 72.2509C47.3093 72.9488 48.3306 73.7334 49.351 74.5991C49.4171 74.6551 49.4832 74.7111 49.5513 74.7689C50.5575 75.6253 51.4686 76.4996 52.2901 77.538C52.4504 77.7382 52.6171 77.9319 52.7847 78.1261C53.1277 78.5326 53.4222 78.9615 53.7101 79.4082C53.7616 79.4877 53.8131 79.5672 53.8662 79.649C55.8783 82.7742 57.3284 86.21 57.7135 89.9317C57.7412 90.1907 57.7738 90.449 57.8058 90.7074C57.958 91.9411 57.958 91.9411 57.983 92.4911C57.9458 92.5347 57.9087 92.5782 57.8704 92.6231C57.9067 92.6964 57.9067 92.6964 57.9437 92.7712C58.0333 93.011 58.0574 93.2143 58.0606 93.4697C58.0235 93.5133 57.9863 93.5569 57.948 93.6018C57.9843 93.6751 57.9843 93.6751 58.0213 93.7498C58.1109 93.9897 58.135 94.1929 58.1383 94.4484C58.1011 94.492 58.0639 94.5355 58.0256 94.5804C58.0497 94.6308 58.0738 94.6812 58.0985 94.7331C58.1813 94.9487 58.2059 95.1228 58.222 95.3525C58.2278 95.4314 58.2337 95.5102 58.2397 95.5915C58.2479 95.7142 58.2479 95.7142 58.2563 95.8393C58.2621 95.9201 58.268 96.0009 58.274 96.0841C58.285 96.2362 58.2957 96.3883 58.3061 96.5405C58.3261 96.8219 58.3486 97.1031 58.3711 97.3843C58.4455 98.3222 58.5199 99.2601 58.5943 100.198C58.1336 100.331 57.7363 100.411 57.2583 100.427C57.2148 100.39 57.1712 100.353 57.1263 100.314C57.0827 100.34 57.0392 100.366 56.9943 100.392C56.668 100.499 56.3598 100.459 56.0236 100.429C55.9519 100.423 55.8802 100.417 55.8063 100.411C54.6863 100.311 53.609 100.102 52.5235 99.8164C52.4012 99.7851 52.2786 99.7555 52.1556 99.7275C51.7143 99.6258 51.3146 99.482 50.9021 99.2962C50.4662 99.1012 50.4662 99.1012 50.0181 98.9369C49.7789 98.8526 49.5846 98.737 49.3698 98.6022C49.1172 98.444 48.8698 98.3028 48.6008 98.1734C48.2223 97.9881 47.8844 97.7553 47.5408 97.5124C47.481 97.4713 47.4213 97.4302 47.3597 97.3878C46.3905 96.7075 45.5316 95.9057 44.7073 95.0597C44.664 95.0154 44.6206 94.9712 44.576 94.9256C43.6642 93.9895 42.8543 93.0171 42.2613 91.847C42.1589 91.6519 42.0472 91.4658 41.93 91.2792C41.7677 91.0162 41.666 90.7647 41.5734 90.4689C41.4679 90.2996 41.4679 90.2996 41.3656 90.1776C41.4028 90.1341 41.44 90.0905 41.4783 90.0456C41.437 89.9976 41.3957 89.9496 41.3532 89.9002C40.5 88.7405 40.32 86.8952 40.1469 85.5039C40.1163 85.2669 40.0786 85.0327 40.0387 84.7972C39.8847 83.7532 39.909 82.6751 39.9132 81.622C39.9132 81.5531 39.9131 81.4842 39.9131 81.4133C39.9135 81.322 39.9135 81.322 39.9139 81.229C39.9085 81.036 39.9085 81.036 39.8185 80.7601C39.741 80.8068 39.8984 80.7119 39.8185 80.7601C39.8265 80.9761 39.8102 80.544 39.8185 80.7601C39.8161 80.6952 39.7426 79.9161 39.7401 79.8492C39.7278 79.505 39.5974 79.2142 39.5499 79.0026C39.5144 76.3678 38.8114 73.616 37.0015 71.6279C36.7419 71.3772 36.4711 71.1427 36.1945 70.911C36.122 70.8498 36.0496 70.7887 35.9749 70.7258C35.2721 70.141 34.5722 69.6229 33.6832 69.3675C33.5826 69.337 33.482 69.3065 33.3784 69.2751C32.2924 68.9538 31.22 68.7614 30.0827 68.7519C29.8793 68.746 29.8793 68.746 29.8133 68.6896Z" fill="white"/>
</svg>
